<?xml version="1.0" encoding="UTF-8" standalone="no"?>
<!-- Created with Inkscape (http://www.inkscape.org/) -->

<svg
   width="90"
   height="90"
   viewBox="0 0 23.812499 23.8125"
   version="1.1"
   id="svg1"
   inkscape:version="1.4.3 (0d15f75, 2025-12-25)"
   sodipodi:docname="email.svg"
   xmlns:inkscape="http://www.inkscape.org/namespaces/inkscape"
   xmlns:sodipodi="http://sodipodi.sourceforge.net/DTD/sodipodi-0.dtd"
   xmlns="http://www.w3.org/2000/svg"
   xmlns:svg="http://www.w3.org/2000/svg">
  <sodipodi:namedview
     id="namedview1"
     pagecolor="#ffffff"
     bordercolor="#000000"
     borderopacity="0.25"
     inkscape:showpageshadow="2"
     inkscape:pageopacity="0.0"
     inkscape:pagecheckerboard="0"
     inkscape:deskcolor="#d1d1d1"
     inkscape:document-units="px"
     inkscape:zoom="2.5919106"
     inkscape:cx="34.916328"
     inkscape:cy="66.553221"
     inkscape:window-width="1512"
     inkscape:window-height="888"
     inkscape:window-x="0"
     inkscape:window-y="38"
     inkscape:window-maximized="0"
     inkscape:current-layer="layer1" />
  <defs
     id="defs1" />
  <g
     inkscape:label="Layer 1"
     inkscape:groupmode="layer"
     id="layer1">
    <path
       style="font-weight:900;font-size:27.5525px;font-family:Tirra;-inkscape-font-specification:'Tirra Heavy';stroke-width:0.406592"
       d="m 11.290009,23.151041 q -2.0075441,0 -3.8372051,-0.622593 -1.8169548,-0.609887 -3.2400245,-1.86778 -1.4230696,-1.245185 -2.2489582,-3.12567 -0.8131826,-1.89319 -0.8131826,-4.447093 0,-2.80802 0.9529484,-5.0950971 Q 3.0565353,5.7057318 4.7210186,4.0666606 6.3855017,2.4275893 8.5582241,1.5508767 10.743653,0.66145824 13.195907,0.66145824 q 2.896963,0 5.018861,1.21977396 2.134604,1.207068 3.290848,3.3543783 1.156245,2.1473104 1.156245,4.9553315 0,1.842368 -0.546357,3.227319 -0.546357,1.372246 -1.448482,2.287076 -0.889418,0.914831 -1.956721,1.372246 -1.067302,0.457415 -2.109192,0.457415 -1.16895,0 -2.020251,-0.520946 -0.851301,-0.53365 -1.067302,-1.512011 h -0.05082 q -0.559062,0.800477 -1.473892,1.29601 -0.914831,0.495534 -1.74072,0.495534 -1.5755413,0 -2.5666076,-1.080009 -0.9783604,-1.092714 -0.9783604,-2.935081 0,-1.219774 0.4065914,-2.388723 Q 7.5163339,9.720821 8.2532806,8.7678726 8.9902274,7.8149242 9.9685877,7.2558612 10.959655,6.6967981 12.115898,6.6967981 q 0.673417,0 1.181657,0.3176495 0.520945,0.3176494 0.864006,1.0291842 h 0.05082 l 0.406595,-1.1308321 h 2.350606 L 15.762514,12.82108 q -0.546357,2.325194 1.245186,2.325194 0.813183,0 1.550129,-0.597181 0.736947,-0.597181 1.194362,-1.689895 0.470122,-1.092714 0.470122,-2.566608 0,-1.9313087 -0.749653,-3.5957919 Q 18.735714,5.0323149 17.122054,4.0158366 15.5211,2.9993584 12.903669,2.9993584 q -1.728013,0 -3.3670846,0.7115347 Q 7.8975132,4.4097219 6.5887974,5.7311437 5.2927876,7.0398595 4.5177229,8.8822264 3.7553642,10.711887 3.7553642,12.973552 q 0,2.642843 1.0800082,4.383562 1.0927141,1.728014 2.8842571,2.579314 1.791543,0.864006 3.8880305,0.864006 1.054595,0 2.134604,-0.292237 1.092713,-0.292238 1.944014,-0.736947 l 0.864007,2.096486 q -1.23248,0.660712 -2.52849,0.965655 -1.29601,0.31765 -2.731786,0.31765 z m -0.216001,-8.297004 q 0.419297,0 0.851301,-0.266826 0.432003,-0.279531 0.940242,-0.965654 l 0.648005,-3.6466164 q -0.444709,-0.7750647 -1.257892,-0.7750647 -0.813182,0 -1.410364,0.6225929 -0.584475,0.6225942 -0.9021242,1.5247182 -0.3176495,0.889418 -0.3176495,1.715307 0,0.902124 0.3938857,1.346833 0.393885,0.44471 1.054596,0.44471 z"
       id="text1"
       aria-label="@" />
  </g>
</svg>
