<?xml version="1.0" encoding="UTF-8" standalone="no"?>
<!-- Created with Inkscape (http://www.inkscape.org/) -->

<svg
   width="90"
   height="90"
   viewBox="0 0 23.812499 23.8125"
   version="1.1"
   id="svg1"
   inkscape:version="1.4.3 (0d15f75, 2025-12-25)"
   sodipodi:docname="instagram.svg"
   xmlns:inkscape="http://www.inkscape.org/namespaces/inkscape"
   xmlns:sodipodi="http://sodipodi.sourceforge.net/DTD/sodipodi-0.dtd"
   xmlns="http://www.w3.org/2000/svg"
   xmlns:svg="http://www.w3.org/2000/svg">
  <sodipodi:namedview
     id="namedview1"
     pagecolor="#ffffff"
     bordercolor="#000000"
     borderopacity="0.25"
     inkscape:showpageshadow="2"
     inkscape:pageopacity="0.0"
     inkscape:pagecheckerboard="0"
     inkscape:deskcolor="#d1d1d1"
     inkscape:document-units="px"
     inkscape:zoom="1.5905386"
     inkscape:cx="44.953326"
     inkscape:cy="43.067172"
     inkscape:window-width="1512"
     inkscape:window-height="888"
     inkscape:window-x="0"
     inkscape:window-y="38"
     inkscape:window-maximized="0"
     inkscape:current-layer="layer1" />
  <defs
     id="defs1">
    <radialGradient
       id="0"
       cx="332.14001"
       cy="2511.8101"
       r="3263.54"
       gradientUnits="userSpaceOnUse"
       gradientTransform="matrix(0.009525,0,0,0.009525,4.7125e-4,2.5e-7)">
      <stop
         offset=".09"
         stop-color="#fa8f21"
         id="stop1" />
      <stop
         offset=".78"
         stop-color="#d82d7e"
         id="stop2" />
    </radialGradient>
    <radialGradient
       id="1"
       cx="1516.14"
       cy="2623.8101"
       r="2572.1201"
       gradientUnits="userSpaceOnUse"
       gradientTransform="matrix(0.009525,0,0,0.009525,4.7125e-4,2.5e-7)">
      <stop
         offset=".64"
         stop-color="#8c3aaa"
         stop-opacity="0"
         id="stop3" />
      <stop
         offset="1"
         stop-color="#8c3aaa"
         id="stop4" />
    </radialGradient>
    <radialGradient
       id="0-9"
       cx="332.14001"
       cy="2511.8101"
       r="3263.54"
       gradientUnits="userSpaceOnUse"
       gradientTransform="matrix(0.009525,0,0,0.009525,4.7125e-4,2.5e-7)">
      <stop
         offset=".09"
         stop-color="#fa8f21"
         id="stop1-7" />
      <stop
         offset=".78"
         stop-color="#d82d7e"
         id="stop2-0" />
    </radialGradient>
    <radialGradient
       id="1-3"
       cx="1516.14"
       cy="2623.8101"
       r="2572.1201"
       gradientUnits="userSpaceOnUse"
       gradientTransform="matrix(0.009525,0,0,0.009525,4.7125e-4,2.5e-7)">
      <stop
         offset=".64"
         stop-color="#8c3aaa"
         stop-opacity="0"
         id="stop3-9" />
      <stop
         offset="1"
         stop-color="#8c3aaa"
         id="stop4-8" />
    </radialGradient>
  </defs>
  <g
     inkscape:label="Layer 1"
     inkscape:groupmode="layer"
     id="layer1">
    <g
       id="g1"
       style="display:none">
      <path
         d="m 7.9386062,11.90625 c 0,-2.1917978 1.776317,-3.9690678 3.9681148,-3.9690678 2.191797,0 3.969067,1.77727 3.969067,3.9690678 0,2.191797 -1.77727,3.969067 -3.969067,3.969067 -2.1917978,0 -3.9681148,-1.77727 -3.9681148,-3.969067 m -2.145602,0 c 0,3.376612 2.737104,6.113716 6.1137168,6.113716 3.376612,0 6.113716,-2.737104 6.113716,-6.113716 0,-3.3766127 -2.737104,-6.1137168 -6.113716,-6.1137168 -3.3766128,0 -6.1137168,2.7371041 -6.1137168,6.1137168 M 16.833717,5.5501222 a 1.42875,1.42875 0 1 0 1.429322,-1.428178 h -5.74e-4 A 1.4294167,1.4294167 0 0 0 16.833717,5.5501223 M 7.0965962,21.597651 c -1.160812,-0.05286 -1.791748,-0.246221 -2.211038,-0.409575 -0.555879,-0.216408 -0.9525,-0.474154 -1.369505,-0.890587 -0.417004,-0.416434 -0.675132,-0.812673 -0.890587,-1.368552 -0.163449,-0.4191 -0.356807,-1.050227 -0.409575,-2.211039 -0.05772,-1.255013 -0.06925,-1.632013 -0.06925,-4.811553 0,-3.1795398 0.01248,-3.5554917 0.06925,-4.8115538 0.05286,-1.160811 0.24765,-1.7907 0.409575,-2.211038 0.216408,-0.555879 0.474154,-0.9525 0.890587,-1.369504 0.416433,-0.417005 0.812673,-0.675132 1.369505,-0.890588 0.4191,-0.163449 1.050226,-0.356806 2.211038,-0.409575 1.255014,-0.05772 1.632013,-0.06925 4.8101248,-0.06925 3.178111,0 3.555492,0.01248 4.811553,0.06925 1.160812,0.05286 1.7907,0.24765 2.211038,0.409575 0.555879,0.2154561 0.9525,0.474155 1.369505,0.890588 0.417004,0.416433 0.67418,0.813625 0.890587,1.369504 0.163449,0.4191 0.356807,1.050227 0.409575,2.211038 0.05772,1.2560621 0.06925,1.632014 0.06925,4.8115538 0,3.17954 -0.01153,3.555492 -0.06925,4.811553 -0.05286,1.160812 -0.247173,1.791748 -0.409575,2.211039 -0.216407,0.555879 -0.474154,0.9525 -0.890587,1.368552 -0.416433,0.416052 -0.813626,0.674179 -1.369505,0.890587 -0.4191,0.163449 -1.050226,0.356807 -2.211038,0.409575 -1.255014,0.05772 -1.632013,0.06925 -4.811553,0.06925 -3.1795408,0 -3.5554918,-0.01152 -4.8101248,-0.06925 M 6.9980162,0.07210425 c -1.267492,0.05772 -2.1336,0.258699 -2.88998,0.553022 -0.783336,0.303942 -1.446467,0.71170805 -2.109121,1.37331405 -0.662654,0.661607 -1.06937195,1.3257849 -1.37331395,2.109121 -0.294323,0.756856 -0.4953,1.622488 -0.553022,2.88998 -0.05867,1.269492 -0.0721,1.675352 -0.0721,4.9087087 0,3.233356 0.01343,3.639216 0.0721,4.908708 0.05772,1.267587 0.258699,2.133124 0.553022,2.889981 0.303942,0.782859 0.71075505,1.447799 1.37331395,2.109121 0.662559,0.66132 1.325785,1.068513 2.109121,1.373314 0.757809,0.294321 1.6224881,0.495299 2.88998,0.553021 1.270159,0.05772 1.675352,0.0721 4.9087088,0.0721 3.233356,0 3.639216,-0.01343 4.908708,-0.0721 1.267587,-0.05772 2.133124,-0.2587 2.88998,-0.553021 0.78286,-0.304801 1.446467,-0.711709 2.109122,-1.373314 0.662654,-0.661607 1.068513,-1.326262 1.373314,-2.109121 0.294321,-0.756857 0.496252,-1.622489 0.553021,-2.889981 0.05772,-1.270444 0.07115,-1.675352 0.07115,-4.908708 0,-3.2333567 -0.01343,-3.6392167 -0.07115,-4.9087087 -0.05772,-1.267587 -0.2587,-2.1336 -0.553021,-2.88998 -0.304801,-0.78286 -0.711709,-1.446467 -1.373314,-2.109121 -0.661607,-0.6626541 -1.326262,-1.06937205 -2.108169,-1.37331405 -0.757809,-0.294323 -1.623441,-0.496253 -2.88998,-0.553022 -1.269492,-0.05772 -1.675352,-0.0721 -4.908709,-0.0721 -3.2333558,0 -3.6395018,0.01343 -4.9096608,0.0721"
         fill="url(#0)"
         id="path4"
         style="fill:url(#0);stroke-width:0.009525" />
      <path
         d="m 7.9386062,11.90625 c 0,-2.1917978 1.776317,-3.9690678 3.9681148,-3.9690678 2.191797,0 3.969067,1.77727 3.969067,3.9690678 0,2.191797 -1.77727,3.969067 -3.969067,3.969067 -2.1917978,0 -3.9681148,-1.77727 -3.9681148,-3.969067 m -2.145602,0 c 0,3.376612 2.737104,6.113716 6.1137168,6.113716 3.376612,0 6.113716,-2.737104 6.113716,-6.113716 0,-3.3766127 -2.737104,-6.1137168 -6.113716,-6.1137168 -3.3766128,0 -6.1137168,2.7371041 -6.1137168,6.1137168 M 16.833717,5.5501222 a 1.42875,1.42875 0 1 0 1.429322,-1.428178 h -5.74e-4 A 1.4294167,1.4294167 0 0 0 16.833717,5.5501223 M 7.0965962,21.597651 c -1.160812,-0.05286 -1.791748,-0.246221 -2.211038,-0.409575 -0.555879,-0.216408 -0.9525,-0.474154 -1.369505,-0.890587 -0.417004,-0.416434 -0.675132,-0.812673 -0.890587,-1.368552 -0.163449,-0.4191 -0.356807,-1.050227 -0.409575,-2.211039 -0.05772,-1.255013 -0.06925,-1.632013 -0.06925,-4.811553 0,-3.1795398 0.01248,-3.5554917 0.06925,-4.8115538 0.05286,-1.160811 0.24765,-1.7907 0.409575,-2.211038 0.216408,-0.555879 0.474154,-0.9525 0.890587,-1.369504 0.416433,-0.417005 0.812673,-0.675132 1.369505,-0.890588 0.4191,-0.163449 1.050226,-0.356806 2.211038,-0.409575 1.255014,-0.05772 1.632013,-0.06925 4.8101248,-0.06925 3.178111,0 3.555492,0.01248 4.811553,0.06925 1.160812,0.05286 1.7907,0.24765 2.211038,0.409575 0.555879,0.2154561 0.9525,0.474155 1.369505,0.890588 0.417004,0.416433 0.67418,0.813625 0.890587,1.369504 0.163449,0.4191 0.356807,1.050227 0.409575,2.211038 0.05772,1.2560621 0.06925,1.632014 0.06925,4.8115538 0,3.17954 -0.01153,3.555492 -0.06925,4.811553 -0.05286,1.160812 -0.247173,1.791748 -0.409575,2.211039 -0.216407,0.555879 -0.474154,0.9525 -0.890587,1.368552 -0.416433,0.416052 -0.813626,0.674179 -1.369505,0.890587 -0.4191,0.163449 -1.050226,0.356807 -2.211038,0.409575 -1.255014,0.05772 -1.632013,0.06925 -4.811553,0.06925 -3.1795408,0 -3.5554918,-0.01152 -4.8101248,-0.06925 M 6.9980162,0.07210425 c -1.267492,0.05772 -2.1336,0.258699 -2.88998,0.553022 -0.783336,0.303942 -1.446467,0.71170805 -2.109121,1.37331405 -0.662654,0.661607 -1.06937195,1.3257849 -1.37331395,2.109121 -0.294323,0.756856 -0.4953,1.622488 -0.553022,2.88998 -0.05867,1.269492 -0.0721,1.675352 -0.0721,4.9087087 0,3.233356 0.01343,3.639216 0.0721,4.908708 0.05772,1.267587 0.258699,2.133124 0.553022,2.889981 0.303942,0.782859 0.71075505,1.447799 1.37331395,2.109121 0.662559,0.66132 1.325785,1.068513 2.109121,1.373314 0.757809,0.294321 1.6224881,0.495299 2.88998,0.553021 1.270159,0.05772 1.675352,0.0721 4.9087088,0.0721 3.233356,0 3.639216,-0.01343 4.908708,-0.0721 1.267587,-0.05772 2.133124,-0.2587 2.88998,-0.553021 0.78286,-0.304801 1.446467,-0.711709 2.109122,-1.373314 0.662654,-0.661607 1.068513,-1.326262 1.373314,-2.109121 0.294321,-0.756857 0.496252,-1.622489 0.553021,-2.889981 0.05772,-1.270444 0.07115,-1.675352 0.07115,-4.908708 0,-3.2333567 -0.01343,-3.6392167 -0.07115,-4.9087087 -0.05772,-1.267587 -0.2587,-2.1336 -0.553021,-2.88998 -0.304801,-0.78286 -0.711709,-1.446467 -1.373314,-2.109121 -0.661607,-0.6626541 -1.326262,-1.06937205 -2.108169,-1.37331405 -0.757809,-0.294323 -1.623441,-0.496253 -2.88998,-0.553022 -1.269492,-0.05772 -1.675352,-0.0721 -4.908709,-0.0721 -3.2333558,0 -3.6395018,0.01343 -4.9096608,0.0721"
         fill="url(#1)"
         id="path5"
         style="fill:url(#1);stroke-width:0.009525" />
    </g>
    <path
       id="path4-6"
       style="fill:#000000;stroke-width:0.00899583"
       d="m 11.907715,0.66145817 c -3.0537242,0 -3.4374179,0.01292 -4.6370124,0.0683305 C 6.0736269,0.78430205 5.2553689,0.97403525 4.5410101,1.2520069 3.8011928,1.5390632 3.175097,1.9244078 2.5492572,2.5492578 1.9234174,3.1741088 1.5390635,3.8011934 1.2520072,4.5410107 0.97403553,5.255819 0.78430327,6.0736276 0.72978806,7.2707032 0.67437756,8.4696677 0.66194866,8.8525247 0.66194866,11.90625 c 0,3.053725 0.0124289,3.437071 0.0678394,4.636036 0.0545133,1.197165 0.24424747,2.014883 0.52221914,2.729692 0.2870563,0.739367 0.6714999,1.367171 1.29725,1.991753 0.6257501,0.62458 1.2519356,1.009384 1.9917529,1.297251 0.7157084,0.27797 1.5326168,0.467704 2.7296925,0.522219 1.1995945,0.05451 1.5823107,0.06784 4.6360354,0.06784 3.053725,0 3.437072,-0.01243 4.636037,-0.06784 1.197165,-0.05451 2.014396,-0.244249 2.729204,-0.522219 0.739368,-0.287867 1.3664,-0.672402 1.992241,-1.297251 0.62584,-0.624851 1.008894,-1.252386 1.296762,-1.991753 0.27797,-0.714809 0.468604,-1.532617 0.522219,-2.729692 0.05451,-1.199864 0.06735,-1.582311 0.06735,-4.636036 0,-3.0537253 -0.01283,-3.4365823 -0.06735,-4.6355468 C 23.028688,6.0735378 22.838952,5.2553695 22.560982,4.5410107 22.273114,3.801643 21.889069,3.1750977 21.26422,2.5492578 20.639369,1.923418 20.011422,1.5390632 19.272955,1.2520069 18.557246,0.97403525 17.739926,0.78340388 16.54375,0.72978872 15.344786,0.67527539 14.961441,0.66145817 11.907715,0.66145817 Z m -9.44e-4,2.02591713 c 3.001549,0 3.358002,0.011787 4.544281,0.065403 1.096323,0.049923 1.690915,0.2340985 2.0879,0.3870277 0.524997,0.2034862 0.899508,0.4476212 1.293346,0.840919 0.393837,0.3932978 0.637023,0.7683489 0.841407,1.2933457 0.154369,0.3958166 0.336703,0.992067 0.38654,2.0883884 0.05451,1.1862806 0.0654,1.5413823 0.0654,4.5442809 0,3.002898 -0.01089,3.358001 -0.0654,4.54428 -0.04992,1.096323 -0.23316,1.691903 -0.38654,2.0879 -0.204384,0.524997 -0.448109,0.899921 -0.841407,1.292859 -0.393298,0.392938 -0.768349,0.636534 -1.293346,0.840919 -0.395816,0.154368 -0.991577,0.336703 -2.0879,0.386539 -1.185291,0.05451 -1.541383,0.0654 -4.544281,0.0654 -3.0028994,0 -3.3578867,-0.01088 -4.5428178,-0.0654 C 6.2676309,21.009314 5.6715619,20.826977 5.2755658,20.672698 4.750569,20.468313 4.3760572,20.225077 3.9822192,19.831779 3.5883821,19.43848 3.344298,19.063917 3.1408128,18.53892 2.9864443,18.143104 2.8041089,17.547343 2.7542725,16.45102 c -0.054513,-1.18529 -0.065399,-1.541382 -0.065399,-4.54428 0,-3.0028989 0.011783,-3.3580006 0.065399,-4.5442812 C 2.8041958,6.2661374 2.9878836,5.6710563 3.1408128,5.2740704 3.3451981,4.7490736 3.5889214,4.3745618 3.9822192,3.9807247 4.375517,3.5868867 4.749669,3.3432919 5.2755658,3.1398057 5.6713824,2.9854372 6.2676309,2.8026154 7.3639532,2.752778 8.5492441,2.6982647 8.9052212,2.6873753 11.906771,2.6873753 Z m 6.00259,1.8672986 a 1.3500045,1.3500045 0 0 0 -1.349473,1.3489848 1.3493748,1.3493748 0 1 0 1.349961,-1.3489848 z m -6.00259,1.5778823 c -3.1890229,0 -5.7741805,2.5846693 -5.7741805,5.7736918 0,3.189022 2.5851576,5.774181 5.7741805,5.774181 3.189022,0 5.77418,-2.585159 5.77418,-5.774181 0,-3.1890225 -2.585158,-5.7736918 -5.77418,-5.7736918 z m 0,2.0254288 c 2.07003,0 3.748263,1.6782323 3.748263,3.748263 0,2.070031 -1.678233,3.748752 -3.748263,3.748752 -2.0700311,0 -3.747776,-1.678721 -3.747776,-3.748752 0,-0.129376 0.00673,-0.257119 0.019523,-0.383123 0.1918899,-1.8900615 1.7875995,-3.36514 3.728253,-3.36514 z" />
  </g>
</svg>
