<?xml version="1.0" encoding="UTF-8" standalone="no"?>
<!-- Created with Inkscape (http://www.inkscape.org/) -->

<svg
   width="90"
   height="90"
   viewBox="0 0 23.812499 23.8125"
   version="1.1"
   id="svg1"
   inkscape:version="1.3.2 (091e20e, 2023-11-25)"
   sodipodi:docname="linkedin.svg"
   xmlns:inkscape="http://www.inkscape.org/namespaces/inkscape"
   xmlns:sodipodi="http://sodipodi.sourceforge.net/DTD/sodipodi-0.dtd"
   xmlns="http://www.w3.org/2000/svg"
   xmlns:svg="http://www.w3.org/2000/svg">
  <sodipodi:namedview
     id="namedview1"
     pagecolor="#ffffff"
     bordercolor="#000000"
     borderopacity="0.25"
     inkscape:showpageshadow="2"
     inkscape:pageopacity="0.0"
     inkscape:pagecheckerboard="0"
     inkscape:deskcolor="#d1d1d1"
     inkscape:document-units="px"
     inkscape:zoom="2.5919106"
     inkscape:cx="34.916327"
     inkscape:cy="66.55322"
     inkscape:window-width="1512"
     inkscape:window-height="888"
     inkscape:window-x="0"
     inkscape:window-y="38"
     inkscape:window-maximized="0"
     inkscape:current-layer="layer1" />
  <defs
     id="defs1" />
  <g
     inkscape:label="Layer 1"
     inkscape:groupmode="layer"
     id="layer1">
    <path
       style="stroke-width:0.553779"
       d="M 23.784809,4.4856234 V 19.326886 c 0,1.21832 -0.443036,2.270497 -1.329071,3.156552 -0.886045,0.886054 -1.938232,1.329061 -3.156552,1.329061 H 4.513284 c -1.218309,0 -2.2704971,-0.443007 -3.1565317,-1.329061 C 0.4706979,21.597383 0.02769062,20.545206 0.02769062,19.326886 V 4.4856234 c 0,-1.2183199 0.44300728,-2.2705071 1.32906168,-3.1565516 C 2.2427869,0.44301738 3.294975,1.2499999e-7 4.513284,1.2499999e-7 h 14.785902 c 1.21832,0 2.270507,0.44301725500001 3.156552,1.32907167500001 0.886034,0.8860445 1.329071,1.9382317 1.329071,3.1565516 z M 7.5037038,5.8700561 c 0,-0.5537691 -0.2215136,-0.9968063 -0.553779,-1.3290718 C 6.5622685,4.153348 6.1192512,3.9872153 5.5100912,3.9872153 c -0.6091499,0 -1.1075581,0.1661726 -1.4398235,0.4984081 -0.3876463,0.3322654 -0.553779,0.7752827 -0.553779,1.3290617 0,0.4983982 0.1661626,0.9414154 0.553779,1.3290718 0.3876364,0.3322654 0.8306736,0.553779 1.4398235,0.553779 v 0 c 0.60916,0 1.1075582,-0.1661626 1.4952145,-0.553779 C 7.3375711,6.8114814 7.5037038,6.3684742 7.5037038,5.8700561 Z M 3.6826214,19.880675 H 7.2267993 V 9.1373495 H 3.6826214 Z m 12.8476706,0 h 3.544198 v -6.146951 c 0,-1.605956 -0.387647,-2.768905 -1.107569,-3.599568 -0.775283,-0.8306738 -1.772079,-1.2183002 -2.990399,-1.2183002 -1.384453,0 -2.492021,0.60915 -3.211923,1.8274602 h 0.05537 V 9.1927404 H 9.2757818 c 0.055371,0.6645308 0.055371,4.2640996 0,10.7433156 H 12.81997 v -6.036199 c 0,-0.387636 0.05537,-0.664541 0.110832,-0.886054 0.166162,-0.387637 0.387637,-0.664531 0.719902,-0.941416 0.332275,-0.276884 0.66455,-0.387646 1.16295,-0.387646 1.218318,0 1.772079,0.830664 1.772079,2.43663 v 5.759304 z"
       id="path6"
       inkscape:connector-curvature="0"
       inkscape:export-xdpi="96"
       inkscape:export-ydpi="96" />
  </g>
</svg>
