<?xml version="1.0" encoding="UTF-8" standalone="no"?>
<!-- Created with Inkscape (http://www.inkscape.org/) -->

<svg
   width="90"
   height="90"
   viewBox="0 0 23.812499 23.8125"
   version="1.1"
   id="svg1"
   inkscape:version="1.4.3 (0d15f75, 2025-12-25)"
   sodipodi:docname="medium-new.svg"
   xmlns:inkscape="http://www.inkscape.org/namespaces/inkscape"
   xmlns:sodipodi="http://sodipodi.sourceforge.net/DTD/sodipodi-0.dtd"
   xmlns="http://www.w3.org/2000/svg"
   xmlns:svg="http://www.w3.org/2000/svg">
  <sodipodi:namedview
     id="namedview1"
     pagecolor="#ffffff"
     bordercolor="#000000"
     borderopacity="0.25"
     inkscape:showpageshadow="2"
     inkscape:pageopacity="0.0"
     inkscape:pagecheckerboard="0"
     inkscape:deskcolor="#d1d1d1"
     inkscape:document-units="px"
     inkscape:zoom="2.5919106"
     inkscape:cx="34.916328"
     inkscape:cy="66.553221"
     inkscape:window-width="1512"
     inkscape:window-height="888"
     inkscape:window-x="0"
     inkscape:window-y="38"
     inkscape:window-maximized="0"
     inkscape:current-layer="layer1" />
  <defs
     id="defs1" />
  <g
     inkscape:label="Layer 1"
     inkscape:groupmode="layer"
     id="layer1">
    <path
       id="path1"
       style="fill-rule:nonzero;stroke-width:0.0465088"
       d="M 4.1775227 0 C 1.8706867 0 0 1.8706402 0 4.1775227 L 0 19.634977 C 0 21.941813 1.8706867 23.812499 4.1775227 23.812499 L 19.634977 23.812499 C 21.94186 23.812499 23.812499 21.941813 23.812499 19.634977 L 23.812499 18.550805 C 23.676694 18.563925 23.537167 18.570442 23.39392 18.570442 C 20.837332 18.570442 19.39786 16.441001 19.33577 13.77642 C 19.33397 13.673403 19.335021 13.57113 19.337321 13.469462 C 19.338721 13.406072 19.340838 13.342782 19.344038 13.279809 C 19.345638 13.246139 19.347223 13.214763 19.349723 13.179557 C 19.352223 13.144257 19.354991 13.108877 19.357991 13.07362 C 19.450031 11.897134 19.828453 10.850475 20.453531 10.075871 C 20.841833 9.5950165 21.308766 9.2284391 21.837943 8.9834308 C 22.302752 8.749445 22.955962 8.6201455 23.488488 8.6201455 L 23.511743 8.6201455 A 4.5206544 4.5206544 0 0 1 23.812499 8.6304808 L 23.812499 4.1775227 C 23.812499 1.8706402 21.94186 0 19.634977 0 L 4.1775227 0 z M 4.3733764 5.5391967 L 8.5059406 5.5391967 L 12.066447 13.908195 L 15.62747 5.5391967 L 19.461861 5.5391967 L 19.461861 5.6844074 L 19.443257 5.6885415 C 18.743532 5.8465319 18.388025 6.0821609 18.388025 6.9318765 L 18.384924 6.9318765 L 18.388025 17.126086 C 18.448021 17.797254 18.808784 18.004105 19.443257 18.147212 L 19.461861 18.151863 L 19.461861 18.29604 L 14.577921 18.29604 L 14.577921 18.151863 L 14.597042 18.147212 C 15.230864 18.004105 15.583022 17.797254 15.642972 17.126086 L 15.642972 7.2088622 L 10.93525 18.272786 L 10.675834 18.272786 L 6.101953 7.5091022 L 6.101953 16.880106 C 6.101953 17.729822 6.4572284 17.96545 7.1571857 18.123441 L 7.1757892 18.127575 L 7.1757892 18.272786 L 4.3718261 18.272786 L 4.3718261 18.127059 L 4.3904296 18.122924 C 5.0903869 17.964933 5.4472126 17.729305 5.4472126 16.879589 L 5.4472126 6.9318765 C 5.4472126 6.0821609 5.0919367 5.8465312 4.3919799 5.6885415 L 4.3733764 5.6844074 L 4.3733764 5.5391967 z M 23.472985 9.1787677 C 22.395981 9.2009987 21.754078 10.49094 21.674129 12.27832 L 23.812499 12.27832 L 23.812499 9.2252765 C 23.706692 9.1963015 23.593443 9.1807667 23.472985 9.1787677 z M 21.62607 12.782165 L 21.625036 12.782682 C 21.526436 14.524204 22.479837 15.995939 23.812499 16.388147 L 23.812499 12.782165 L 21.62607 12.782165 z " />
  </g>
</svg>
