<?xml version="1.0" encoding="UTF-8" standalone="no"?>
<svg
   xmlns:dc="http://purl.org/dc/elements/1.1/"
   xmlns:cc="http://creativecommons.org/ns#"
   xmlns:rdf="http://www.w3.org/1999/02/22-rdf-syntax-ns#"
   xmlns:svg="http://www.w3.org/2000/svg"
   xmlns="http://www.w3.org/2000/svg"
   xmlns:sodipodi="http://sodipodi.sourceforge.net/DTD/sodipodi-0.dtd"
   xmlns:inkscape="http://www.inkscape.org/namespaces/inkscape"
   width="450"
   height="450"
   viewBox="0 0 119.0625 119.0625"
   version="1.1"
   id="svg8"
   inkscape:version="1.0 (4035a4f, 2020-05-01)"
   sodipodi:docname="cover.svg">
  <defs
     id="defs2" />
  <sodipodi:namedview
     inkscape:snap-object-midpoints="true"
     showguides="true"
     id="base"
     pagecolor="#3c3c3c"
     bordercolor="#666666"
     borderopacity="1.0"
     inkscape:pageopacity="0"
     inkscape:pageshadow="2"
     inkscape:zoom="0.79110308"
     inkscape:cx="422.46735"
     inkscape:cy="357.79882"
     inkscape:document-units="px"
     inkscape:current-layer="g1855"
     inkscape:document-rotation="0"
     showgrid="false"
     inkscape:pagecheckerboard="false"
     units="px"
     inkscape:showpageshadow="false"
     borderlayer="false"
     showborder="true"
     inkscape:snap-midpoints="true"
     inkscape:snap-bbox="false"
     inkscape:bbox-paths="true"
     inkscape:object-nodes="true"
     inkscape:snap-page="false"
     inkscape:object-paths="true"
     inkscape:snap-intersection-paths="true"
     inkscape:snap-smooth-nodes="true"
     inkscape:snap-nodes="true" />
  <metadata
     id="metadata5">
    <rdf:RDF>
      <cc:Work
         rdf:about="">
        <dc:format>image/svg+xml</dc:format>
        <dc:type
           rdf:resource="http://purl.org/dc/dcmitype/StillImage" />
        <dc:title />
      </cc:Work>
    </rdf:RDF>
  </metadata>
  <g
     style="display:none"
     inkscape:label="Sombra tampa - color"
     id="g1855"
     inkscape:groupmode="layer"
     sodipodi:insensitive="true">
    <g
       transform="translate(14.175864,75.897233)"
       id="g1853">
      <path
         style="display:inline;mix-blend-mode:normal;fill:#000000;fill-opacity:0.1;stroke:none;stroke-width:0.264583px;stroke-linecap:butt;stroke-linejoin:miter;stroke-opacity:1"
         d="m 120.8219,138.37355 v 14.81676 l 45.82844,-26.88658 -0.001,-14.38853 z"
         id="path1849" />
      <path
         id="path1851"
         d="m 120.8219,138.37355 v 14.81676 l -45.828445,-26.88658 0.001,-14.38853 z"
         style="display:inline;mix-blend-mode:normal;fill:#000000;fill-opacity:0.1;stroke:none;stroke-width:0.264583px;stroke-linecap:butt;stroke-linejoin:miter;stroke-opacity:1" />
    </g>
  </g>
  <g
     style="display:inline"
     inkscape:label="Tampa - color"
     id="g1843"
     inkscape:groupmode="layer"
     sodipodi:insensitive="true">
    <path
       id="path1837"
       d="M 12.649819,32.887834 59.531249,5.8208346 106.41268,32.887844 59.531239,60.324994 Z"
       style="fill:#e3e3e3;fill-opacity:1;stroke:none;stroke-width:0.264583px;stroke-linecap:butt;stroke-linejoin:miter;stroke-opacity:1" />
    <path
       id="path1839"
       d="m 12.649819,32.887834 v 14.81676 l 46.88142,27.43716 1e-5,-14.81677 z"
       style="fill:#dedede;fill-opacity:1;stroke:none;stroke-width:0.264583px;stroke-linecap:butt;stroke-linejoin:miter;stroke-opacity:1" />
    <path
       sodipodi:nodetypes="ccccc"
       style="fill:#d4d4d4;fill-opacity:1;stroke:none;stroke-width:0.264583px;stroke-linecap:butt;stroke-linejoin:miter;stroke-opacity:1"
       d="m 59.531239,75.141754 v -14.81676 l 46.881421,-27.43716 1e-5,14.81677 z"
       id="path1841" />
  </g>
  <g
     style="display:inline"
     inkscape:groupmode="layer"
     id="g1835"
     inkscape:label="Fita tampa - color"
     sodipodi:insensitive="true">
    <path
       sodipodi:nodetypes="ccccc"
       style="display:inline;fill:#234b92;fill-opacity:1;stroke:none;stroke-width:0.264583px;stroke-linecap:butt;stroke-linejoin:miter;stroke-opacity:1"
       d="m 32.930999,44.757314 v 14.81675 l 6.31906,3.69821 1e-5,-14.81677 z"
       id="path1801" />
    <path
       id="path1803"
       d="m 86.131489,44.757324 v 14.81675 l -6.31906,3.69821 -10e-6,-14.81677 z"
       style="display:inline;fill:#214078;fill-opacity:1;stroke:none;stroke-width:0.264583px;stroke-linecap:butt;stroke-linejoin:miter;stroke-opacity:1"
       sodipodi:nodetypes="ccccc" />
    <path
       id="path1805"
       d="m 86.100659,44.775344 -47.20892,-27.03805 -5.76681,3.32946 46.7183,27.37073 z"
       style="display:inline;fill:#234b92;fill-opacity:1;stroke:none;stroke-width:0.264583px;stroke-linecap:butt;stroke-linejoin:miter;stroke-opacity:1"
       sodipodi:nodetypes="ccccc" />
    <path
       sodipodi:nodetypes="ccccc"
       style="display:inline;fill:#ea2525;fill-opacity:1;stroke:none;stroke-width:0.256178px;stroke-linecap:butt;stroke-linejoin:miter;stroke-opacity:1"
       d="m 65.664549,33.043914 -6.33732,-3.11241 -5.58363,3.22371 5.86228,3.43452 z"
       id="path1807" />
    <path
       sodipodi:nodetypes="ccccc"
       style="display:inline;fill:#234b92;fill-opacity:1;stroke:none;stroke-width:0.264583px;stroke-linecap:butt;stroke-linejoin:miter;stroke-opacity:1"
       d="m 32.930999,44.757314 47.20893,-27.03805 5.76681,3.32947 -46.7183,27.37072 z"
       id="path1809" />
    <path
       style="fill:#000000;fill-opacity:0.15;stroke:none;stroke-width:0.315504px;stroke-linecap:butt;stroke-linejoin:miter;stroke-opacity:1"
       d="m 58.241969,36.749864 c 0,0 -6.47396,2.1067 -7.32658,6.18359 -0.63021,3.01348 2.1921,14.40978 2.1921,14.40978 l -5.00219,-4.78611 -2.62237,3.5483 c 0,0 -2.54371,-12.38679 -0.96037,-15.41268 2.30922,-4.41306 13.55376,-7.95533 13.55376,-7.95533 z"
       id="path1811"
       sodipodi:nodetypes="cscccscc" />
    <path
       sodipodi:nodetypes="cscccscc"
       id="path1813"
       d="m 56.933219,37.047814 c 0,0 -6.41946,1.78644 -7.13955,5.88881 -0.53225,3.03232 2.65778,14.3312 2.65778,14.3312 l -5.15462,-4.62154 -2.50604,3.63139 c 0,0 -2.94367,-12.29788 -1.45919,-15.37347 2.16504,-4.48556 13.28892,-8.39026 13.28892,-8.39026 z"
       style="fill:#19376a;fill-opacity:1;stroke:none;stroke-width:0.315504px;stroke-linecap:butt;stroke-linejoin:miter;stroke-opacity:1" />
    <path
       sodipodi:nodetypes="czcccc"
       id="path1815"
       d="m 56.684879,37.123334 c 0,0 -1.76916,-0.52462 -2.89172,-0.80556 -1.12256,-0.28094 -3.84731,-0.85538 -3.84731,-0.85538 l 0.33865,-0.1779 6.40041,1.3392 z"
       style="fill:#000000;fill-opacity:0.15;stroke:none;stroke-width:0.264583px;stroke-linecap:butt;stroke-linejoin:miter;stroke-opacity:1" />
    <path
       style="fill:#122a52;fill-opacity:1;stroke:none;stroke-width:0.315504px;stroke-linecap:butt;stroke-linejoin:miter;stroke-opacity:1"
       d="m 56.684909,36.623694 c 0,0 -12.07652,-2.21579 -15.80033,-4.25782 -3.72379,-2.04202 -6.10668,-5.11844 -7.21424,-6.66465 -1.10756,-1.54621 -0.0884,-2.78794 1.93959,-3.58835 2.02798,-0.8004 5.64329,3.75163 7.71701,5.44834 2.07372,1.69672 13.37183,4.55307 13.37183,4.55307 z"
       id="path1817"
       sodipodi:nodetypes="czzzzcc" />
    <path
       sodipodi:nodetypes="cccczcc"
       id="path1819"
       d="m 57.204379,30.388164 c 0,0 -11.13554,-13.18221 -15.861,-13.61866 -4.72543,-0.43645 -6.37726,-0.195 -7.28592,2.78329 -2.06227,1.46664 -1.76049,4.9769 -0.2862,6.09796 -1.45822,-2.25077 3.39135,-2.00465 6.45548,-1.35738 3.06414,0.64726 16.45382,11.25292 16.45382,11.25292 z"
       style="fill:#19376a;fill-opacity:1;stroke:none;stroke-width:0.315504px;stroke-linecap:butt;stroke-linejoin:miter;stroke-opacity:1" />
    <path
       sodipodi:nodetypes="cscccscc"
       id="path1821"
       d="m 60.265559,35.783994 c 0,0 11.23718,6.24458 15.40012,6.11055 4.65713,-0.14994 13.20714,1.53372 13.20714,1.53372 l -3.49749,-4.03056 5.44718,-2.41958 c 0,0 -10.79936,-1.70434 -14.16293,-1.11331 -5.25017,0.92253 -15.39403,-3.31264 -15.39403,-3.31264 z"
       style="fill:#000000;fill-opacity:0.15;stroke:none;stroke-width:0.315504px;stroke-linecap:butt;stroke-linejoin:miter;stroke-opacity:1" />
    <path
       style="fill:#19376a;fill-opacity:1;stroke:none;stroke-width:0.315504px;stroke-linecap:butt;stroke-linejoin:miter;stroke-opacity:1"
       d="m 60.265559,35.783984 c 0,0 11.23718,5.18625 15.40012,5.05222 4.65713,-0.14994 13.20714,1.53372 13.20714,1.53372 l -3.49749,-4.03056 5.44718,-2.41958 c 0,0 -10.79936,-1.70434 -14.16293,-1.11331 -5.25017,0.92253 -15.39403,-3.31264 -15.39403,-3.31264 z"
       id="path1823"
       sodipodi:nodetypes="cscccscc" />
    <path
       style="fill:#000000;fill-opacity:0.15;stroke:none;stroke-width:0.264583px;stroke-linecap:butt;stroke-linejoin:miter;stroke-opacity:1"
       d="m 62.417039,36.734754 c 0,0 7.38381,-0.91643 8.50637,-1.19737 1.12256,-0.28094 2.89429,-0.64631 2.89429,-0.64631 l -0.50181,-0.045 -10.84433,1.63239 z"
       id="path1825"
       sodipodi:nodetypes="czcccc" />
    <path
       sodipodi:nodetypes="czzzzcc"
       id="path1827"
       d="m 61.570889,36.561294 c 0,0 11.99529,-0.99729 15.7191,-3.03931 3.7238,-2.04202 6.10669,-5.11844 7.21424,-6.66466 1.10757,-1.54621 0.0884,-2.78796 -1.93958,-3.58838 -2.02798,-0.80041 -5.6433,3.75167 -7.71702,5.44838 -2.07372,1.69671 -13.37183,4.55306 -13.37183,4.55306 z"
       style="fill:#122a52;fill-opacity:1;stroke:none;stroke-width:0.315504px;stroke-linecap:butt;stroke-linejoin:miter;stroke-opacity:1" />
    <path
       style="fill:#19376a;fill-opacity:1;stroke:none;stroke-width:0.315504px;stroke-linecap:butt;stroke-linejoin:miter;stroke-opacity:1"
       d="m 60.970189,31.463034 c 0,0 11.13554,-13.10101 15.861,-13.53746 4.72544,-0.43646 6.37726,-0.195 7.28592,2.78328 2.06227,1.46665 1.7605,4.97694 0.2862,6.09801 1.45822,-2.25079 -3.39134,-2.00466 -6.45548,-1.35739 -3.06414,0.64727 -16.45382,11.25292 -16.45382,11.25292 z"
       id="path1829"
       sodipodi:nodetypes="cccczcc" />
    <path
       sodipodi:nodetypes="scsssscssss"
       d="m 57.748699,28.874604 1.78255,0.31377 1.81094,-0.31377 c 0.66227,-0.11474 1.20764,0.54107 1.20069,1.21317 l -0.0649,6.27675 c -0.007,0.67209 -0.55364,1.21316 -1.22577,1.21316 l -1.63895,-0.4631 -1.95454,0.4631 c -0.65402,0.15496 -1.21302,-0.54115 -1.20069,-1.21316 0.0432,-2.34962 0.07,-4.50405 0.0649,-6.27675 -0.002,-0.67213 0.55364,-1.21317 1.22577,-1.21317 z"
       style="fill:#122a52;fill-opacity:1;stroke:none;stroke-width:0.272159;stroke-opacity:1"
       id="path1831" />
  </g>
</svg>
