<?xml version="1.0" encoding="UTF-8" standalone="no"?>
<!-- Created with Inkscape (http://www.inkscape.org/) -->

<svg
   xmlns:dc="http://purl.org/dc/elements/1.1/"
   xmlns:cc="http://creativecommons.org/ns#"
   xmlns:rdf="http://www.w3.org/1999/02/22-rdf-syntax-ns#"
   xmlns:svg="http://www.w3.org/2000/svg"
   xmlns="http://www.w3.org/2000/svg"
   xmlns:sodipodi="http://sodipodi.sourceforge.net/DTD/sodipodi-0.dtd"
   xmlns:inkscape="http://www.inkscape.org/namespaces/inkscape"
   width="736"
   height="300"
   viewBox="0 0 194.73333 79.375002"
   version="1.1"
   id="svg8"
   inkscape:version="0.92.2 5c3e80d, 2017-08-06"
   sodipodi:docname="logo2.svg">
  <defs
     id="defs2" />
  <sodipodi:namedview
     id="base"
     pagecolor="#ffffff"
     bordercolor="#666666"
     borderopacity="1.0"
     inkscape:pageopacity="0.0"
     inkscape:pageshadow="2"
     inkscape:zoom="0.24748738"
     inkscape:cx="-1090.3093"
     inkscape:cy="639.881"
     inkscape:document-units="mm"
     inkscape:current-layer="layer1"
     showgrid="false"
     inkscape:window-width="1440"
     inkscape:window-height="805"
     inkscape:window-x="0"
     inkscape:window-y="1"
     inkscape:window-maximized="1"
     units="px"
     inkscape:pagecheckerboard="false"
     inkscape:showpageshadow="true"
     showborder="true" />
  <metadata
     id="metadata5">
    <rdf:RDF>
      <cc:Work
         rdf:about="">
        <dc:format>image/svg+xml</dc:format>
        <dc:type
           rdf:resource="http://purl.org/dc/dcmitype/StillImage" />
        <dc:title />
      </cc:Work>
    </rdf:RDF>
  </metadata>
  <g
     inkscape:label="Layer 1"
     inkscape:groupmode="layer"
     id="layer1"
     transform="translate(0,-217.62498)">
    <g
       id="g19"
       transform="matrix(5.051109,0,0,5.051109,-468.52521,-261.00491)"
       style="fill:#333333">
      <g
         aria-label="vinic"
         style="font-style:normal;font-weight:normal;font-size:10.58333302px;line-height:1.25;font-family:sans-serif;letter-spacing:0px;word-spacing:0px;fill:#333333;fill-opacity:1;stroke:none;stroke-width:0.26458332"
         id="text20">
        <path
           d="m 93.531056,96.567136 h -0.762 l 0.941916,3.884084 c 0.116417,0.48683 0.169334,0.762 0.465667,1.00542 0.169333,0.13758 0.402167,0.23283 0.66675,0.23283 0.264583,0 0.497417,-0.0952 0.66675,-0.23283 0.296333,-0.24342 0.34925,-0.51859 0.465667,-1.00542 l 0.941916,-3.884084 h -0.762 l -0.92075,3.810004 c -0.0635,0.27516 -0.105833,0.43391 -0.169333,0.508 -0.05292,0.0635 -0.137583,0.10583 -0.22225,0.10583 -0.08467,0 -0.169333,-0.0423 -0.22225,-0.10583 -0.0635,-0.0741 -0.105833,-0.23284 -0.169333,-0.508 z"
           style="font-style:normal;font-variant:normal;font-weight:normal;font-stretch:normal;font-family:Gidolinya;-inkscape-font-specification:Gidolinya;fill:#333333;stroke-width:0.26458332"
           id="path19" />
        <path
           d="m 98.133483,94.757386 c -0.28575,0 -0.497417,0.201083 -0.497417,0.497416 0,0.296334 0.211667,0.497417 0.497417,0.497417 0.28575,0 0.497416,-0.201083 0.497416,-0.497417 0,-0.296333 -0.211666,-0.497416 -0.497416,-0.497416 z m -0.370417,6.868584 h 0.740833 v -5.058834 h -0.740833 z"
           style="font-style:normal;font-variant:normal;font-weight:normal;font-stretch:normal;font-family:Gidolinya;-inkscape-font-specification:Gidolinya;fill:#333333;stroke-width:0.26458332"
           id="path21" />
        <path
           d="m 101.61771,96.503636 c -0.64558,0 -1.10066,0.275166 -1.35466,0.53975 -0.497419,0.518583 -0.497419,1.132416 -0.497419,1.87325 v 2.709334 h 0.740829 v -2.709334 c 0,-0.656167 0,-1.100667 0.30692,-1.407584 0.17992,-0.179916 0.45508,-0.306916 0.80433,-0.306916 0.34925,0 0.62442,0.127 0.80434,0.306916 0.30691,0.306917 0.30691,0.751417 0.30691,1.407584 v 2.709334 h 0.74084 v -2.709334 c 0,-0.740834 0,-1.354667 -0.49742,-1.87325 -0.254,-0.264584 -0.70908,-0.53975 -1.35467,-0.53975 z"
           style="font-style:normal;font-variant:normal;font-weight:normal;font-stretch:normal;font-family:Gidolinya;-inkscape-font-specification:Gidolinya;fill:#333333;stroke-width:0.26458332"
           id="path23" />
        <path
           d="m 105.12014,94.757386 c -0.28575,0 -0.49742,0.201083 -0.49742,0.497416 0,0.296334 0.21167,0.497417 0.49742,0.497417 0.28575,0 0.49741,-0.201083 0.49741,-0.497417 0,-0.296333 -0.21166,-0.497416 -0.49741,-0.497416 z m -0.37042,6.868584 h 0.74083 v -5.058834 h -0.74083 z"
           style="font-style:normal;font-variant:normal;font-weight:normal;font-stretch:normal;font-family:Gidolinya;-inkscape-font-specification:Gidolinya;fill:#333333;stroke-width:0.26458332"
           id="path25" />
        <path
           d="m 109.80028,100.64172 c -0.33866,0.23283 -0.74083,0.34925 -1.143,0.34925 -0.41275,0 -0.73025,-0.13758 -0.93133,-0.37042 -0.33867,-0.39158 -0.33867,-1.026581 -0.33867,-1.566331 0,-0.465667 0,-1.090083 0.32809,-1.471083 0.254,-0.296334 0.61383,-0.381 0.94191,-0.381 0.381,0 0.77259,0.116416 1.09009,0.3175 l 0.35983,-0.60325 c -0.43392,-0.275167 -0.94192,-0.41275 -1.44992,-0.41275 -0.67733,0 -1.18533,0.254 -1.51341,0.635 -0.49742,0.5715 -0.49742,1.36525 -0.49742,1.915583 0,0.624417 0,1.439331 0.508,2.010831 0.32808,0.37042 0.8255,0.62442 1.50283,0.62442 0.53975,0 1.0795,-0.15875 1.524,-0.45508 z"
           style="font-style:normal;font-variant:normal;font-weight:normal;font-stretch:normal;font-family:Gidolinya;-inkscape-font-specification:Gidolinya;fill:#333333;stroke-width:0.26458332"
           id="path27" />
      </g>
      <g
         aria-label="ius"
         style="font-style:normal;font-weight:normal;font-size:10.58333302px;line-height:1.25;font-family:sans-serif;letter-spacing:0px;word-spacing:0px;fill:#333333;fill-opacity:1;stroke:none;stroke-width:0.26458332"
         id="text24">
        <path
           d="m 100.3583,103.53967 c -0.28575,0 -0.497418,0.20109 -0.497418,0.49742 0,0.29633 0.211668,0.49742 0.497418,0.49742 0.28575,0 0.49741,-0.20109 0.49741,-0.49742 0,-0.29633 -0.21166,-0.49742 -0.49741,-0.49742 z m -0.370418,6.86859 h 0.740828 v -5.05884 h -0.740828 z"
           style="font-style:normal;font-variant:normal;font-weight:normal;font-stretch:normal;font-family:Gidolinya;-inkscape-font-specification:Gidolinya;fill:#333333;stroke-width:0.26458332"
           id="path30" />
        <path
           d="m 101.99045,105.34942 v 2.70934 c 0,0.74083 0,1.35466 0.49741,1.87325 0.254,0.26458 0.70909,0.53975 1.35467,0.53975 0.64558,0 1.10067,-0.27517 1.35467,-0.53975 0.49741,-0.51859 0.49741,-1.13242 0.49741,-1.87325 v -2.70934 h -0.74083 v 2.70934 c 0,0.65616 0,1.10066 -0.30692,1.40758 -0.17991,0.17992 -0.45508,0.30692 -0.80433,0.30692 -0.34925,0 -0.62442,-0.127 -0.80433,-0.30692 -0.30692,-0.30692 -0.30692,-0.75142 -0.30692,-1.40758 v -2.70934 z"
           style="font-style:normal;font-variant:normal;font-weight:normal;font-stretch:normal;font-family:Gidolinya;-inkscape-font-specification:Gidolinya;fill:#333333;stroke-width:0.26458332"
           id="path32" />
        <path
           d="m 109.93787,105.63517 c -0.47625,-0.22225 -1.00542,-0.34925 -1.54517,-0.34925 -0.43392,0 -0.80433,0.0952 -1.11125,0.30692 -0.30692,0.21167 -0.5715,0.58208 -0.5715,1.06892 0,0.45508 0.24342,0.83608 0.56092,1.0795 0.3175,0.24341 0.6985,0.33866 1.03716,0.41275 0.33867,0.0741 0.60325,0.13758 0.83609,0.30691 0.16933,0.127 0.29633,0.32809 0.29633,0.5715 0,0.17992 -0.0741,0.39159 -0.27517,0.53975 -0.20108,0.14817 -0.46566,0.20109 -0.77258,0.20109 -0.48683,0 -0.97367,-0.10584 -1.40758,-0.30692 l -0.29634,0.635 c 0.53975,0.254 1.13242,0.37042 1.70392,0.37042 0.48683,0 0.889,-0.10584 1.21708,-0.33867 0.32809,-0.23283 0.5715,-0.62442 0.5715,-1.10067 0,-0.52916 -0.29633,-0.92075 -0.62441,-1.15358 -0.29634,-0.21167 -0.64559,-0.30692 -1.02659,-0.39158 -0.381,-0.0847 -0.60325,-0.13759 -0.81491,-0.30692 -0.14817,-0.11642 -0.26459,-0.29633 -0.26459,-0.51858 0,-0.23284 0.127,-0.42334 0.30692,-0.52917 0.17992,-0.10583 0.37042,-0.14817 0.635,-0.14817 0.42333,0 0.86783,0.10584 1.27,0.29634 z"
           style="font-style:normal;font-variant:normal;font-weight:normal;font-stretch:normal;font-family:Gidolinya;-inkscape-font-specification:Gidolinya;fill:#333333;stroke-width:0.26458332"
           id="path34" />
      </g>
    </g>
    <g
       aria-label="bs"
       style="font-style:normal;font-weight:normal;font-size:118.11476898px;line-height:1.25;font-family:sans-serif;letter-spacing:0px;word-spacing:0px;fill:#b3b3b3;fill-opacity:1;stroke:none;stroke-width:2.95286918"
       id="text28">
      <path
         d="m 123.95624,246.91837 c 4.48836,0 7.91369,1.65361 10.03976,4.13402 3.54344,4.13401 3.54344,10.63033 3.54344,17.24475 0,6.02386 0,12.16583 -4.13402,16.65419 -2.59852,2.83475 -6.61443,4.25213 -10.63033,4.25213 -3.66155,0 -7.205,-1.18115 -9.56729,-4.0159 -2.83476,-3.42533 -2.83476,-8.50427 -2.83476,-14.76435 0,-8.74049 0,-15.23681 3.54345,-19.37082 2.12606,-2.48041 5.55139,-4.13402 10.03975,-4.13402 z m 0.59057,-7.79557 c -5.78762,0 -10.98467,2.71664 -14.17377,7.205 v -28.70189 h -8.26803 v 51.26181 c 0,8.85861 0,14.76434 4.0159,20.31574 3.30721,4.60647 9.21295,7.79557 16.65418,7.79557 7.08689,0 12.7564,-2.83475 16.41796,-6.49631 6.61442,-6.73254 6.61442,-15.00058 6.61442,-22.20558 0,-8.0318 0,-15.82738 -5.31516,-22.20557 -3.42533,-4.13402 -8.97672,-6.96877 -15.9455,-6.96877 z"
         style="font-style:normal;font-variant:normal;font-weight:normal;font-stretch:normal;font-family:Gidolinya;-inkscape-font-specification:Gidolinya;fill:#b3b3b3;stroke-width:2.95286918"
         id="path14" />
      <path
         d="m 191.95528,243.02058 c -5.31516,-2.48041 -11.2209,-3.89778 -17.24475,-3.89778 -4.84271,0 -8.97672,1.06303 -12.40205,3.42532 -3.42533,2.3623 -6.3782,6.49632 -6.3782,11.9296 0,5.07893 2.71664,9.33106 6.26008,12.0477 3.54345,2.71664 7.79558,3.77968 11.57525,4.60648 3.77967,0.8268 6.73254,1.53549 9.33107,3.42533 1.88983,1.41737 3.30721,3.66155 3.30721,6.37819 0,2.00796 -0.8268,4.37025 -3.07098,6.02386 -2.24418,1.6536 -5.19705,2.24418 -8.62238,2.24418 -5.43328,0 -10.86656,-1.18115 -15.70927,-3.42533 l -3.30721,7.08689 c 6.02385,2.83475 12.63828,4.13401 19.01648,4.13401 5.43328,0 9.92164,-1.18114 13.5832,-3.77967 3.66155,-2.59852 6.37819,-6.96877 6.37819,-12.28394 0,-5.90573 -3.30721,-10.27598 -6.96877,-12.87451 -3.30721,-2.36229 -7.205,-3.42532 -11.45713,-4.37024 -4.25213,-0.94492 -6.73254,-1.53549 -9.09484,-3.42533 -1.6536,-1.29926 -2.95287,-3.30721 -2.95287,-5.78762 0,-2.59853 1.41738,-4.72459 3.42533,-5.90574 2.00795,-1.18115 4.13402,-1.65361 7.08689,-1.65361 4.72459,0 9.68541,1.18115 14.17377,3.30721 z"
         style="font-style:normal;font-variant:normal;font-weight:normal;font-stretch:normal;font-family:Gidolinya;-inkscape-font-specification:Gidolinya;fill:#b3b3b3;stroke-width:2.95286918"
         id="path16" />
    </g>
  </g>
</svg>
