<?xml version="1.0" encoding="UTF-8" standalone="no"?>
<!DOCTYPE svg PUBLIC "-//W3C//DTD SVG 1.1//EN" "http://www.w3.org/Graphics/SVG/1.1/DTD/svg11.dtd">
<svg width="100%" height="100%" viewBox="0 0 256 256" version="1.1" xmlns="http://www.w3.org/2000/svg" xmlns:xlink="http://www.w3.org/1999/xlink" xml:space="preserve" xmlns:serif="http://www.serif.com/" style="fill-rule:evenodd;clip-rule:evenodd;stroke-linejoin:round;stroke-miterlimit:2;">
    <g transform="matrix(1,0,0,1,-1300.000959,-2724.104218)">
        <g transform="matrix(0.185436,0,0,0.185436,1049.662509,2214.316109)">
            <rect x="1350" y="2750" width="1380.531" height="1378.773" style="fill:rgb(212,240,255);"/>
        </g>
        <g transform="matrix(0.179171,0,0,0.179171,1076.039247,2240.34162)">
            <circle cx="1964.386" cy="3414.386" r="714.386" style="fill:rgb(213,241,255);"/>
        </g>
        <g transform="matrix(0.095203,0,0,0.095203,1324.2293,2729.432238)">
            <g transform="matrix(1.990593,0,0,1.76271,-1079.74679,-1170.386143)">
                <g transform="matrix(0.707107,-0.707107,0.707107,0.707107,-1172.7417,830.893219)">
                    <path d="M1515.854,1684.146L1600,2100L1184.853,2015.147L1100,1600L1515.854,1684.146Z" style="fill:white;"/>
                </g>
                <g transform="matrix(0.707107,-0.707107,0.707107,0.707107,-1172.7417,830.893219)">
                    <path d="M1526.162,1680.892L1610.308,2096.747C1611.025,2100.291 1609.75,2104.182 1606.956,2106.971C1604.163,2109.76 1600.271,2111.028 1596.728,2110.304L1181.581,2025.451C1177.974,2024.714 1175.286,2022.026 1174.549,2018.419L1089.696,1603.272C1088.972,1599.729 1090.24,1595.837 1093.029,1593.044C1095.818,1590.25 1099.709,1588.975 1103.253,1589.692L1519.108,1673.838C1522.73,1674.571 1525.429,1677.27 1526.162,1680.892ZM1506.734,1693.266L1113.784,1613.755L1193.964,2006.036L1586.245,2086.216L1506.734,1693.266Z"/>
                </g>
                <path d="M1443.5,1184.411L1443.473,1606.5L1090,1840L1090,1418L1443.5,1184.411Z" style="fill:white;"/>
                <path d="M1453.348,1184.412L1453.321,1606.501C1453.321,1610.451 1451.465,1614.105 1448.445,1616.1L1094.973,1849.6C1091.927,1851.612 1088.161,1851.63 1085.1,1849.647C1082.039,1847.665 1080.152,1843.985 1080.152,1840L1080.152,1418C1080.152,1414.05 1082.007,1410.396 1085.026,1408.401L1438.526,1174.812C1441.572,1172.8 1445.338,1172.781 1448.4,1174.764C1451.461,1176.746 1453.349,1180.427 1453.348,1184.412ZM1433.65,1203.805L1099.848,1424.378L1099.848,1820.61L1433.625,1600.121L1433.65,1203.805Z"/>
                <g transform="matrix(-1,0,0,1,2179.946609,0)">
                    <path d="M1443.5,1184.411L1443.473,1606.5L1090,1840L1090,1418L1443.5,1184.411Z" style="fill:white;"/>
                </g>
                <g transform="matrix(-1,0,0,1,2179.946609,0)">
                    <path d="M1438.526,1174.812L1085.026,1408.401C1082.007,1410.396 1080.152,1414.05 1080.152,1418L1080.152,1840C1080.152,1843.985 1082.039,1847.665 1085.1,1849.647C1088.161,1851.63 1091.927,1851.612 1094.973,1849.6L1448.445,1616.1C1451.465,1614.105 1453.321,1610.451 1453.321,1606.501L1453.348,1184.412C1453.349,1180.427 1451.461,1176.746 1448.4,1174.764C1445.338,1172.781 1441.572,1172.8 1438.526,1174.812ZM1433.65,1203.805L1433.625,1600.121L1099.848,1820.61L1099.848,1424.378L1433.65,1203.805Z"/>
                </g>
            </g>
            <g transform="matrix(1.319019,0,0,-1.168018,-347.731062,2933.514122)">
                <g transform="matrix(0.707107,-0.707107,0.707107,0.707107,-1172.7417,830.893219)">
                    <path d="M1515.854,1684.146L1600,2100L1184.853,2015.147L1100,1600L1515.854,1684.146Z" style="fill:rgb(226,226,226);"/>
                </g>
                <g transform="matrix(0.707107,-0.707107,0.707107,0.707107,-1172.7417,830.893219)">
                    <path d="M1520.764,1668.589L1104.91,1584.444C1099.56,1583.361 1093.688,1585.286 1089.48,1589.502C1085.271,1593.717 1083.357,1599.592 1084.449,1604.938L1169.302,2020.085C1170.415,2025.528 1174.472,2029.585 1179.915,2030.698L1595.062,2115.551C1600.408,2116.643 1606.283,2114.729 1610.498,2110.52C1614.714,2106.312 1616.639,2100.44 1615.556,2095.09L1531.411,1679.236C1530.304,1673.77 1526.23,1669.696 1520.764,1668.589ZM1502.09,1697.91L1579.241,2079.197L1198.602,2001.398L1120.803,1620.759L1502.09,1697.91Z"/>
                </g>
                <path d="M1443.5,1184.411L1443.473,1606.5L1090,1840L1090,1418L1443.5,1184.411Z" style="fill:rgb(226,226,226);"/>
                <path d="M1435.994,1169.925L1082.494,1403.514C1077.938,1406.524 1075.137,1412.039 1075.137,1418L1075.137,1840C1075.137,1846.013 1077.986,1851.567 1082.605,1854.559C1087.225,1857.551 1092.908,1857.524 1097.504,1854.487L1450.977,1620.987C1455.534,1617.977 1458.335,1612.463 1458.335,1606.501L1458.363,1184.412C1458.363,1178.398 1455.514,1172.844 1450.894,1169.852C1446.275,1166.86 1440.59,1166.888 1435.994,1169.925ZM1428.636,1213.68L1428.611,1596.873L1104.863,1810.737L1104.863,1427.625L1428.636,1213.68Z"/>
                <g transform="matrix(-1,0,0,1,2179.946609,0)">
                    <path d="M1443.5,1184.411L1443.473,1606.5L1090,1840L1090,1418L1443.5,1184.411Z" style="fill:rgb(226,226,226);"/>
                </g>
                <g transform="matrix(-1,0,0,1,2179.946609,0)">
                    <path d="M1458.363,1184.412L1458.335,1606.501C1458.335,1612.463 1455.534,1617.977 1450.977,1620.987L1097.504,1854.487C1092.908,1857.524 1087.225,1857.551 1082.605,1854.559C1077.986,1851.567 1075.137,1846.013 1075.137,1840L1075.137,1418C1075.137,1412.039 1077.938,1406.524 1082.494,1403.514L1435.994,1169.925C1440.59,1166.888 1446.275,1166.86 1450.894,1169.852C1455.514,1172.844 1458.363,1178.398 1458.363,1184.412ZM1428.636,1213.68L1104.863,1427.625L1104.863,1810.737L1428.611,1596.873L1428.636,1213.68Z"/>
                </g>
            </g>
            <g transform="matrix(1,0,0,0.88552,0,65.139233)">
                <g transform="matrix(0.707107,-0.707107,0.707107,0.707107,-1172.7417,830.893219)">
                    <path d="M1515.854,1684.146L1600,2100L1184.853,2015.147L1100,1600L1515.854,1684.146Z" style="fill:white;"/>
                </g>
                <g transform="matrix(0.707107,-0.707107,0.707107,0.707107,-1172.7417,830.893219)">
                    <path d="M1536.373,1677.67L1620.519,2093.524C1621.947,2100.58 1619.408,2108.326 1613.848,2113.877C1608.287,2119.428 1600.539,2121.953 1593.487,2120.511L1178.34,2035.659C1171.16,2034.191 1165.809,2028.84 1164.341,2021.66L1079.489,1606.513C1078.047,1599.461 1080.572,1591.713 1086.123,1586.152C1091.674,1580.592 1099.42,1578.053 1106.476,1579.481L1522.33,1663.627C1529.541,1665.086 1534.914,1670.459 1536.373,1677.67ZM1497.699,1702.301L1127.439,1627.382L1202.989,1997.011L1572.618,2072.561L1497.699,1702.301Z"/>
                </g>
                <path d="M1443.5,1184.411L1443.473,1606.5L1090,1840L1090,1418L1443.5,1184.411Z" style="fill:white;"/>
                <path d="M1463.104,1184.413L1463.077,1606.502C1463.076,1614.365 1459.382,1621.639 1453.371,1625.609L1099.898,1859.109C1093.836,1863.114 1086.339,1863.15 1080.246,1859.204C1074.154,1855.258 1070.396,1847.932 1070.396,1840L1070.396,1418C1070.396,1410.137 1074.089,1402.864 1080.099,1398.892L1433.599,1165.304C1439.662,1161.297 1447.16,1161.26 1453.253,1165.207C1459.347,1169.154 1463.105,1176.48 1463.104,1184.413ZM1423.893,1223.017L1109.604,1430.696L1109.604,1801.402L1423.869,1593.802L1423.893,1223.017Z"/>
                <g transform="matrix(-1,0,0,1,2179.946609,0)">
                    <path d="M1443.5,1184.411L1443.473,1606.5L1090,1840L1090,1418L1443.5,1184.411Z" style="fill:white;"/>
                </g>
                <g transform="matrix(-1,0,0,1,2179.946609,0)">
                    <path d="M1433.599,1165.304L1080.099,1398.892C1074.089,1402.864 1070.396,1410.137 1070.396,1418L1070.396,1840C1070.396,1847.932 1074.154,1855.258 1080.246,1859.204C1086.339,1863.15 1093.836,1863.114 1099.898,1859.109L1453.371,1625.609C1459.382,1621.639 1463.076,1614.365 1463.077,1606.502L1463.104,1184.413C1463.105,1176.48 1459.347,1169.154 1453.253,1165.207C1447.16,1161.26 1439.662,1161.297 1433.599,1165.304ZM1423.893,1223.017L1423.869,1593.802L1109.604,1801.402L1109.604,1430.696L1423.893,1223.017Z"/>
                </g>
            </g>
        </g>
    </g>
</svg>
