<?xml version="1.0" encoding="UTF-8" standalone="no"?>
<!-- Created with Inkscape (http://www.inkscape.org/) -->

<svg
   width="58.034172mm"
   height="41.364624mm"
   viewBox="0 0 58.034172 41.364624"
   version="1.1"
   id="svg5"
   xmlns="http://www.w3.org/2000/svg"
   xmlns:svg="http://www.w3.org/2000/svg">
  <defs
     id="defs2" />
  <g
     id="layer1"
     transform="translate(-17.386919,-175.6618)">
    <g
       id="g10500">
      <g
         id="g7395"
         style="opacity:1">
        <path
           style="fill:#999999;fill-opacity:0.154882;stroke:none;stroke-width:0.264583"
           id="path4199"
           d="m 75.407493,187.46217 c -0.229571,-0.17842 -0.449858,-0.36948 -0.688716,-0.53527 -0.784111,-0.54422 -1.976712,-1.24967 -2.768706,-1.71015 -1.918049,-1.1152 -3.866959,-2.16879 -5.829606,-3.20265 -2.304974,-1.17712 -4.643187,-2.30267 -7.054827,-3.24705 -0.945007,-0.37005 -1.864587,-0.67697 -2.821839,-1.0069 -1.574676,-0.50619 -3.141533,-1.01789 -4.637892,-1.72586 -0.827145,-0.37727 0.646465,0.61169 -0.331504,1.48959 -1.453674,1.30493 -2.326428,-0.49384 -1.751859,0.73248 0.845637,1.54857 1.992976,2.92713 3.270247,4.1398 1.005671,0.95481 1.781212,1.52037 2.872997,2.37616 2.689013,2.01928 5.666459,3.5866 8.730466,4.94805 0.126281,0.22722 0.980829,0.35193 1.246114,0.49768 0.10855,0.0596 0.195342,0.15301 0.300106,0.21908 0.438407,0.27644 0.43398,0.26326 0.803389,0.42639 0.933349,0.36393 1.828667,0.8105 2.721263,1.26341 0.596493,0.24746 -0.08191,-0.23178 0.04858,-0.9529 0.05986,-0.33079 0.256934,-0.65291 0.51703,-0.86589 0.21404,-0.17526 0.594585,-0.0308 0.801841,-0.21405 0.111593,-0.0986 -0.288293,-0.075 -0.43244,-0.11252 -3.400418,-0.88297 -6.755138,-1.9305 -10.087753,-3.03948 -3.541882,-1.17775 -7.002018,-2.58265 -10.508258,-3.8598 -2.406531,-0.78686 -4.792176,-1.65648 -7.238547,-2.31485 -0.160274,-0.0315 -0.319739,-0.12166 -0.480822,-0.0946 -0.05865,0.01 -0.0047,0.11917 -0.01447,0.17784 -0.127508,0.76487 -0.200099,1.54218 -0.39729,2.29212 -0.03394,0.12908 -0.379603,0.19628 -0.280528,0.28572 0.355129,0.32057 0.859478,0.42053 1.291228,0.62662 0.729022,0.34798 1.460696,0.69038 2.191044,1.03557 7.289326,3.4198 14.60614,6.78129 21.925181,10.13697 -1.243068,-1.87018 1.837132,1.40188 2.102999,0.71128 0.201668,-0.52385 -0.03441,-1.15365 0.17363,-1.67499 0.109574,-0.2746 0.711446,-0.23868 0.707961,-0.53432 -0.0013,-0.12101 -1.419341,-0.43921 -1.457354,-0.44855 -1.220584,0.1645 -1.028406,0.0408 -1.865476,2.4848 -0.07513,0.21936 0.312936,0.34422 0.49099,0.49274 0.774906,0.64639 1.665068,1.12756 2.547106,1.60567 -0.353404,-0.6068 0.966611,0.68486 0.968688,0.3424 0.0024,-0.40715 -0.382315,-0.77027 -0.334897,-1.17466 0.05055,-0.43107 0.366641,-0.79064 0.607674,-1.15158 0.266811,-0.39954 1.225547,0.0723 -0.666702,-0.39565 -3.606382,-0.85925 -7.03797,-2.3193 -10.330545,-4.00319 -0.8542,-0.43686 -1.690505,-0.90786 -2.535759,-1.36179 -0.775285,-0.44897 -1.556242,-0.88828 -2.325852,-1.34691 -1.645972,-0.98088 -2.187387,-1.33525 -3.711667,-2.37691 -1.143304,-0.78132 -2.258383,-1.59972 -3.407873,-2.37193 -1.426237,-0.9726 -2.903995,-1.58942 -4.621893,-1.75887 -0.414337,0.0124 -0.836107,-0.0419 -1.243012,0.0372 -1.020601,0.19842 -0.763064,1.94132 -0.687321,2.45752 0.03938,0.26841 0.386857,0.38225 0.601231,0.54849 0.127759,0.0991 1.637509,1.06263 1.640419,1.0645 3.571476,2.16805 6.889954,4.7088 10.215525,7.22824 2.850119,2.13089 5.585003,4.45651 8.66462,6.26142 0.430507,0.25232 0.878803,0.47298 1.318202,0.70946 0.798084,0.34596 1.64651,0.74 2.540344,0.74368 0.416168,0.002 0.967158,0.2519 1.24727,-0.0559 1.40335,-1.54204 0.885462,-1.77455 0.12596,-2.60527 -0.20428,-0.12602 -0.402717,-0.26205 -0.612841,-0.37806 -0.952932,-0.52611 -1.936671,-0.99444 -2.909327,-1.48312 -2.774267,-1.39387 -3.452455,-1.76282 -6.485249,-3.0555 -1.327767,-0.56594 -2.675269,-1.08441 -4.012904,-1.62661 -3.112122,-1.22618 -6.304701,-2.22992 -9.525659,-3.12457 -0.140187,-0.0389 -1.953924,-0.5868 -2.421903,-0.59143 -0.0013,0.0209 0.0035,0.0823 -0.0043,0.0628 -0.17194,-0.43253 -0.03564,-0.39734 -0.324205,-0.93084 -0.422071,-0.78034 -1.079756,-1.25963 -1.776658,-1.77007 -0.864264,-0.4969 -1.796243,-0.92203 -2.80002,-1.01922 -0.148058,-0.0143 -0.361883,-0.13715 -0.446021,-0.0145 -0.524327,0.76445 -0.832302,1.65666 -1.248455,2.48499 0.170265,0.14225 0.334248,0.29238 0.510794,0.42675 1.056288,0.80399 2.196539,1.51837 3.292658,2.26344 5.836226,3.96705 -2.320851,-1.55776 4.670988,3.17325 4.490202,3.03152 9.034759,5.99264 13.735661,8.68986 2.621524,1.50414 3.351636,1.84788 5.899063,3.16032 0.651325,0.29709 1.292992,0.61633 1.953972,0.89127 0.366019,0.15224 0.732742,0.3243 1.123854,0.38895 0.105035,0.0173 0.213358,-0.0726 0.278001,-0.15723 0.529238,-0.69253 1.068588,-1.38633 1.486236,-2.15136 0.04601,-0.0843 -0.118476,-0.15492 -0.197054,-0.21009 -0.188055,-0.13205 -0.397232,-0.2311 -0.59585,-0.34665 -1.513768,-0.69252 -1.771221,-0.77081 -3.568051,-0.11611 -0.873924,0.31843 0.07064,0.44909 -0.78104,0.22978 -0.332033,-0.11865 -0.693505,-0.17496 -0.996103,-0.35595 -0.31895,-0.19078 -0.514088,-0.55124 -0.834739,-0.73915 -0.926825,-0.54314 -1.937277,-0.9307 -2.883289,-1.43967 -1.311035,-0.70538 -2.591441,-1.46625 -3.885581,-2.20216 -8.16251,-4.64157 -1.012283,-0.60159 -9.521846,-5.39642 -4.3194,-2.42984 -8.684596,-4.80556 -13.249151,-6.75019 -1.175469,-0.50078 -3.41032,-1.37363 -4.80704,-1.68998 -0.331956,-0.0752 -0.678034,-0.0605 -1.01705,-0.0908 -2.310297,0.41751 -2.71282,-0.20318 -1.676604,2.77889 0.100031,0.28788 0.456452,0.40537 0.702784,0.58481 0.622041,0.45312 1.305597,0.78709 2.012548,1.07974 0.108868,0.0261 0.214878,0.0712 0.326607,0.0783 0.03857,0.002 0.08344,-0.0184 0.104055,-0.0511 0.470546,-0.74639 0.997011,-1.46671 1.359871,-2.27098 0.04209,-0.0933 -0.188344,-0.10274 -0.29061,-0.099 -0.449046,0.0165 -0.929572,-0.0271 -1.338652,0.15885 -0.311203,0.14144 -0.457792,0.50778 -0.686689,0.76167 -0.07345,0.32754 -0.197043,0.64775 -0.220342,0.98262 -0.0708,1.01752 0.65084,2.35748 1.219639,3.14322 0.239101,0.3303 0.513956,0.63317 0.770932,0.94975 3.59237,3.69077 8.059169,6.37761 12.432636,9.03101 2.069571,1.06358 4.012787,2.3577 6.073566,3.43667 0.994624,0.52076 2.011569,0.99971 3.040025,1.44997 1.241291,0.54345 2.994219,1.2144 4.374089,1.53007 0.327761,0.075 0.668372,0.074 1.002557,0.11097 0.0275,-0.12381 0.05499,-0.24763 0.08248,-0.37144 0.474128,-0.78443 1.175708,-1.47052 1.422384,-2.35328 0.06967,-0.24933 -0.41752,-0.30843 -0.64312,-0.43541 -0.777896,-0.43787 -1.61926,-0.68516 -2.468753,-0.93592 -0.309639,-0.0723 -0.617005,-0.15507 -0.928912,-0.2168 -0.950468,-0.18812 -1.911123,-0.32052 -2.866049,-0.48451 -2.654115,-0.45577 -5.304938,-0.92836 -7.960376,-1.37668 -2.465691,-0.41472 -4.942408,-0.7615 -7.428745,-1.02546 -0.377743,-0.0401 -1.730751,-0.18897 -2.256087,-0.16665 -0.105804,0.005 -0.204364,0.0556 -0.306546,0.0835 0.109559,0.18734 0.428429,0.36928 0.328676,0.56201 -0.376454,0.72735 -1.056867,1.25143 -1.589331,1.87371 -0.03919,0.0458 -0.08911,-0.0814 -0.130251,-0.12548 -0.108945,-0.11666 -0.266769,-0.21036 -0.311682,-0.36353 -0.104249,-0.35553 -0.07931,-0.73674 -0.118962,-1.10511 0.677775,-0.85768 0.349488,-0.84481 1.303604,-0.85054 0.01175,-7e-5 -0.02434,0.009 -0.02885,0.0202 -0.0039,0.01 0.0181,0.0277 0.008,0.0299 -0.02601,0.006 -0.0523,-0.01 -0.07845,-0.0146 -1.206955,-0.3865 -2.490232,-0.32703 -3.744105,-0.38408 -0.71134,0.0139 -0.871943,5.3e-4 -1.548366,0.0713 -0.17377,0.0181 -0.521906,-0.10178 -0.519049,0.0729 0.0029,0.17533 0.355534,0.013 0.521386,0.07 0.04754,0.0163 0.03987,0.0934 0.07058,0.13324 0.155567,0.20161 0.324432,0.3926 0.486648,0.5889 -0.04738,0.45401 -0.09475,0.90803 -0.142131,1.36204 0.0065,0.0208 -0.0019,0.0575 0.01945,0.0624 0.03461,0.008 0.06793,-0.0211 0.100687,-0.0348 0.312171,-0.13061 0.515932,-0.49626 0.700889,-0.74829 0.21681,-0.13941 0.135281,-0.46442 0.285565,-0.64542 0.01508,-0.0182 0.05067,0.0202 0.07049,0.007 0.230973,-0.14976 0.414546,-0.39113 0.637328,-0.55844 0.07827,-0.0763 0.153149,-0.15624 0.234805,-0.22891 0.318539,-0.28347 0.0312,0.0571 -0.02678,-0.003 -0.612738,-0.63672 -2.416005,-2.54316 -1.685139,-2.04648 0.775901,0.52729 1.217047,1.42794 1.82557,2.14191 0.887989,0.0839 1.78622,0.0159 2.671924,0.13456 0.02252,0.003 -0.07592,0.0365 -0.05383,0.0418 0.223096,0.0543 0.453268,0.0737 0.6799,0.11057 0.944612,0.27769 1.589627,0.9966 2.268939,1.66255 1.014312,0.99435 0.733883,0.71816 1.895324,1.73076 0.44364,0.36195 0.881433,0.73119 1.330923,1.08586 0.975527,0.76974 2.480599,1.88105 3.44001,2.62248 2.013447,1.55598 3.991654,3.15757 5.996982,4.72407 0.786378,0.60201 2.0403,1.57789 2.895925,2.18151 0.251603,0.1775 0.493845,0.37569 0.77283,0.50599 0.0766,0.0358 0.211447,0.0468 0.252161,-0.0273 1.234514,-2.24663 0.0028,-1.90598 1.771988,-1.98914 -1.454015,-1.46812 -3.491208,-1.91706 -5.373422,-2.57196 -0.722292,-0.25131 -1.43504,-0.52926 -2.152558,-0.7939 -0.8607,-0.39962 -1.73845,-0.76442 -2.582103,-1.19889 -5.152255,-2.65331 -9.818531,-6.1732 -14.32089,-9.79099 -1.619652,-1.35096 -3.187854,-2.76261 -4.692071,-4.24092 -0.273298,-0.26859 -0.534437,-0.54942 -0.809265,-0.81644 -0.152003,-0.14769 -0.279328,-0.33647 -0.470818,-0.42729 -0.05566,-0.0264 -0.06069,0.10722 -0.09104,0.16083 -1.316541,2.4125 -0.0027,1.05538 -2.083758,1.38419 -0.105519,0.0167 0.131357,0.16854 0.199686,0.25065 0.09963,0.11973 0.198797,0.24 0.304104,0.35476 0.559441,0.60963 0.507754,0.52237 1.225857,1.13275 0.35161,0.23579 0.691399,0.49024 1.054833,0.70736 0.715674,0.42756 2.367949,1.25047 3.055845,1.59668 2.0671,1.04037 4.133747,2.0807 6.210885,3.10088 2.007359,1.02907 4.063372,1.97041 6.025978,3.08476 0.704979,0.43713 1.48632,0.56512 2.295524,0.46495 0.120936,-0.037 0.119804,8e-4 0.08156,-0.0794 0.178189,0.0623 1.059714,-2.45762 0.881528,-2.51995 v 0 c -0.114332,-0.0753 -0.0507,-0.0422 -0.19322,-0.0949 -0.278847,-0.0524 -0.862502,-0.21011 -1.025406,0.10422 -0.391395,-0.41758 -0.689462,-0.90888 -1.075896,-1.33223 -1.211233,-1.32693 -2.662698,-2.3817 -4.205081,-3.29336 -0.729123,-0.38976 -1.441694,-0.81221 -2.187363,-1.1693 -2.778588,-1.33061 -5.738562,-2.19026 -8.702503,-2.99017 -0.185748,-0.0752 -0.382728,-0.12713 -0.557245,-0.22563 -0.311123,-0.17562 -0.585435,-0.50902 -0.843949,-0.7398 -0.568904,-0.50787 -1.421897,-1.14913 -2.258047,-0.84818 -0.580755,0.20903 -0.720627,1.00229 -1.080939,1.50343 0.0037,0.2628 -0.02966,0.52872 0.01093,0.78839 0.11103,0.71035 0.501169,1.47228 0.843495,2.07086 1.125,1.96715 2.62469,3.67194 4.086592,5.38957 2.04456,2.15281 2.667786,2.94942 5.078233,4.86097 4.071683,3.22896 8.68119,5.72431 13.754113,6.93696 0.846177,0.14235 1.688407,0.31058 2.538531,0.42704 0.601046,0.0823 1.20745,0.11981 1.812113,0.16897 0.821843,0.0668 1.210628,0.004 1.952853,0.24857 0.46623,0.15364 0.891611,0.43894 1.30811,0.68662 0.582396,0.15048 1.211482,0.72504 1.747187,0.45145 0.675709,-0.34509 0.899829,-1.24133 1.180047,-1.94641 0.08987,-0.22614 -0.03543,-0.492 -0.120328,-0.72006 -0.579871,-1.55763 -1.951767,-2.71029 -3.027431,-3.89777 -0.645154,-0.57422 -1.267851,-1.17471 -1.935469,-1.72266 -2.970826,-2.43829 -6.304486,-4.35524 -9.678215,-6.17034 -0.8851,-0.55165 -1.105437,-0.6448 -1.878383,-1.28308 -1.120994,-0.92568 -2.075222,-2.06086 -3.503136,-2.54362 -0.346782,-0.0924 -0.684559,-0.23013 -1.040342,-0.27709 -1.598395,-0.21098 -3.251766,-0.13173 -4.777015,0.41049 2.907639,4.81353 0.723339,1.05173 -0.226039,0.0738 -0.09526,-0.0981 -1.166074,0.65385 -1.27378,0.7632 -0.485805,0.46861 -0.8674,0.94951 -1.160854,1.56236 -0.129501,0.27045 -0.192951,0.25187 -0.07427,0.2696 0.14642,-0.14638 0.203171,-0.2011 0.186865,-0.19952 -0.0657,0.006 -0.117872,0.0599 -0.173784,0.0949 -0.689261,0.43245 -0.581208,0.8429 -0.684202,1.83212 0.17934,0.23182 0.542274,0.8689 0.949428,0.96758 0.40118,0.0972 0.820124,0.0949 1.230053,0.14341 0.708655,0.0839 1.418596,0.15409 2.134108,0.12639 0.288973,-0.0154 0.577946,-0.0309 0.866918,-0.0463 -0.01035,-0.024 -0.0561,-0.0647 -0.03101,-0.0719 0.414938,-0.12 0.578696,-0.04 0.94293,-0.1756 0.02922,-0.0109 0.03536,-0.0557 0.06388,-0.0683 0.0195,-0.009 0.04185,0.008 0.06277,0.0123 0.135353,0.0148 0.254934,0.0928 0.393264,0.0945 1.231709,0.0151 1.045072,0.0573 1.9139,-0.90323 -0.03115,-0.38809 0.01408,-0.79008 -0.09347,-1.16428 -0.0526,-0.18301 -0.229533,-0.30599 -0.366963,-0.4378 -0.928709,-0.89068 -1.890189,0.73747 -2.357954,1.57851 -0.130323,0.23432 0.270156,0.46323 0.405233,0.69484 0.129638,0.13645 0.241279,0.29261 0.388917,0.40934 0.547333,0.43278 1.451665,0.86882 2.041882,1.11441 2.361618,0.98267 4.864312,1.55436 7.377509,1.98752 2.789381,0.36804 3.460636,0.54687 6.24917,0.5658 1.678308,0.0114 2.73145,-0.10327 4.321313,-0.32641 0.316068,-0.0444 0.626041,-0.13112 0.943731,-0.16176 0.188434,-0.0182 0.378468,0.0107 0.567701,0.016 0.727779,0.24996 1.409499,0.59256 2.141916,0.83258 0.286782,0.094 0.604366,0.39511 0.869754,0.25143 2.573814,-1.39352 2.470338,-1.09792 2.232705,-2.50054 -0.205148,-0.24428 -0.377267,-0.52063 -0.615445,-0.73282 -0.891236,-0.794 -2.687772,-1.92989 -3.601236,-2.4679 -2.915102,-1.71692 -6.027615,-3.04977 -8.929565,-4.79017 -2.732059,-1.46761 -5.446067,-2.97375 -8.192109,-4.41501 -0.569066,-0.29867 -3.060702,-1.54282 -3.789262,-1.94625 -0.367516,-0.20352 -0.718941,-0.43482 -1.078412,-0.65223 -0.58546,-0.45495 -1.084906,-0.8411 -1.501765,-1.45552 -0.165975,-0.24464 -0.272047,-0.48587 -0.334028,-0.45986 -0.104439,0.0438 -0.138041,0.17962 -0.207063,0.26942 -0.638797,0.55613 -0.335669,0.45777 -1.406604,0.42971 -0.03841,-10e-4 0.07607,-0.0286 0.09859,-0.0597 0.531667,-0.73474 1.060151,-1.47244 1.558441,-2.23021 0.02286,-0.0348 0.01021,-0.0881 -0.01011,-0.12439 -0.05072,-0.0906 -0.130244,-0.1617 -0.195366,-0.24254 -0.573532,-0.49306 -1.17965,-0.94068 -1.863445,-1.27493 -0.251838,-0.12311 -0.593127,-0.51789 -0.781579,-0.31037 -2.431851,2.67791 1.750918,1.44474 -2.494462,2.10122 0.154609,0.2397 0.271494,0.50847 0.463822,0.71911 0.886825,0.97127 2.717657,2.39957 3.637267,3.07978 3.96571,2.93331 8.194662,5.49085 12.511603,7.86884 1.731312,0.90115 3.436586,1.8542 5.193938,2.70345 3.288842,1.58935 6.461625,2.95382 9.973672,3.95765 2.547636,0.72817 5.032327,1.16373 7.692387,0.90966 0.590643,-0.0564 1.117712,-0.3986 1.676567,-0.5979 0.277024,-0.22978 0.565952,-0.44591 0.831075,-0.68933 0.05105,-0.0469 0.18043,-0.17696 0.111133,-0.17572 -1.718056,0.0306 -1.825689,0.008 -1.052103,0.46017 0.211466,0.12359 0.427414,0.23935 0.641118,0.35902 0.168933,0.0701 1.600985,0.70512 1.774036,0.59776 0.821418,-0.50956 1.495285,-1.27403 2.004195,-2.09586 0.144722,-0.2337 -0.08566,-0.55306 -0.213003,-0.79667 -0.543941,-1.04057 -1.448363,-1.72131 -2.283068,-2.51767 -0.772925,-0.62368 -1.52272,-1.27716 -2.318774,-1.87103 -2.170589,-1.61929 -4.250896,-2.93549 -6.575764,-4.3401 -1.990685,-1.20272 -5.321202,-3.09725 -7.384153,-4.20538 -1.132313,-0.60823 -2.283081,-1.18146 -3.424621,-1.77219 -2.42711,-1.13611 -4.823285,-2.26717 -7.362311,-3.13258 -0.340339,-0.116 -1.568421,-0.5137 -2.072053,-0.61208 -0.104508,-0.0204 -0.212823,-0.008 -0.319236,-0.0118 -0.550079,0.73343 -2.475746,1.78636 -1.655667,2.19622 0.640964,0.32034 1.343213,0.52307 1.997832,0.81168 0.124137,0.0544 0.757714,0.34561 0.969116,0.39971 0.05522,0.0141 0.115982,-0.0148 0.171008,8e-5 0.04413,0.0119 0.09558,0.0349 0.113546,0.0769 0.149918,0.35065 -0.07739,0.81371 0.229608,1.12079 0.143526,0.30098 0.252746,0.62088 0.430583,0.90295 0.928647,1.47295 2.685782,2.61214 4.138303,3.45452 2.649982,1.53685 3.915478,1.95716 6.834504,3.19925 3.546203,1.24445 4.662377,1.7391 8.281231,2.61231 2.214092,0.53424 4.571394,0.98488 6.868345,0.92605 0.122375,-0.003 0.242438,-0.0342 0.363657,-0.0513 -0.217879,-0.83497 -0.355074,-1.08652 0.681733,-2.19229 0.227108,-0.24221 0.667229,0.0247 0.995828,-0.0229 0.0523,-0.008 -0.07675,-0.0731 -0.119575,-0.10408 -0.38684,-0.27948 -0.801781,-0.51893 -1.180754,-0.8097 -3.123067,-2.38258 -6.090549,-4.95967 -9.150675,-7.42125 -1.37378,-1.04359 -2.682531,-2.07017 -4.118515,-3.0298 -2.29852,-1.53604 -4.748408,-2.86792 -7.337422,-3.84381 -0.391417,-0.13504 -0.778235,-0.28422 -1.174245,-0.40511 -0.377132,-0.11514 -0.942012,-0.32111 -1.030425,-0.0649 -0.215905,0.62565 -0.246827,1.30366 -0.446048,1.93483 -0.03002,0.0951 -0.130212,0.1692 -0.226385,0.19556 -0.182068,0.0499 -0.377293,0.0144 -0.565941,0.0216 1.125537,0.14727 2.21099,0.49253 3.073331,1.25977 0.960398,0.97657 1.837624,2.0313 2.820704,2.98611 1.830631,1.77798 3.852045,3.33963 5.999269,4.71747 0.921975,0.5276 1.817594,1.10419 2.765927,1.5828 3.776351,1.90589 7.91201,3.0791 12.156623,3.06517 0.294698,-0.007 2.618684,-0.0654 2.629291,-0.0699 1.453095,-0.62332 1.767867,-1.83506 0.713613,-2.94187 -0.168097,-0.17648 -0.362368,-0.32603 -0.543549,-0.48904 -0.88205,-0.58501 -1.738299,-1.14012 -2.744841,-1.49361 -0.243795,-0.0856 -0.541644,-0.35955 -0.747881,-0.20388 -0.775783,0.58556 -1.372979,1.39398 -1.90581,2.20688 -0.07389,0.11273 0.167979,0.21084 0.251965,0.31626 0.250106,0.12958 0.488223,0.28552 0.750314,0.38873 1.039878,0.40948 2.603103,0.83962 3.629705,0.11766 1.100489,-0.77392 1.091401,-2.4437 0.549791,-3.46194 -0.329573,-0.61961 -0.84585,-1.12012 -1.268773,-1.68018 -0.801528,-0.69898 -1.547778,-1.46694 -2.404583,-2.09695 -2.374186,-1.74574 -5.172067,-3.24206 -7.845888,-4.43939 -3.164144,-1.4169 -5.830639,-2.32384 -9.172903,-3.1822 -1.229622,-0.31578 -2.484758,-0.52223 -3.727138,-0.78335 -1.78123,-0.25897 -2.721126,-0.45901 -4.408278,-0.5194 -0.601512,-0.0215 -1.350828,-0.39109 -1.805689,0.003 -0.905499,0.78471 -1.30692,1.93529 -0.611608,2.70768 0.122788,0.1364 0.281929,0.23504 0.422891,0.35256 0.241999,0.15243 0.474991,0.3202 0.725996,0.4573 1.986748,1.08517 4.195926,1.69096 6.300377,2.49174 3.475736,1.39171 6.84657,3.01749 10.296705,4.46823 0.776621,0.26909 1.543902,0.56682 2.32986,0.80727 2.953726,0.90367 6.065081,1.44137 9.158716,1.21359 0.46359,-0.0419 1.718696,-0.14105 1.945986,-0.2686 1.144858,-0.64249 0.823701,-1.98205 0.103841,-2.73306 -1.013801,-0.84548 -2.170025,-1.50146 -3.505618,-1.64472 -0.112326,-0.0132 -0.260651,-0.12314 -0.336983,-0.0397 -0.03464,0.0379 0.216603,0.26077 0.211595,0.24965 -0.27015,-0.59989 -0.737005,-1.06093 -1.235205,-1.47736 -0.303392,-0.22979 -0.597813,-0.47194 -0.910177,-0.68938 -2.313157,-1.61024 -4.850821,-2.86849 -7.183279,-4.44789 -0.972886,-0.68661 -1.803749,-1.25188 -2.734516,-1.98871 -1.282017,-1.0149 -2.500201,-2.11511 -3.69498,-3.22999 -0.156634,-0.1525 -0.311426,-0.30692 -0.469903,-0.45751 -0.144074,-0.1369 -0.24008,-0.38353 -0.437671,-0.40488 -0.706326,-0.0763 -1.556994,-0.29573 -2.127491,0.12766 -0.801335,0.59469 -0.11956,1.73059 0.284933,2.24298 0.149976,0.14882 0.289472,0.309 0.449926,0.44645 1.2666,1.08503 2.871195,1.66884 4.372012,2.33738 0.852834,0.37239 1.713624,0.72699 2.559137,1.11572 2.250602,1.03472 4.391893,2.28344 6.550528,3.49315 3.318195,1.81629 6.725997,3.60695 10.451327,4.41942 0.177327,0.1139 1.788099,-2.39387 1.610773,-2.50777 z" />
        <path
           style="fill:#999999;fill-opacity:0.154882;stroke:none;stroke-width:0.264583"
           id="path7388"
           d="m 47.414108,180.37431 c -0.164949,0.0409 -0.501102,-0.0471 -0.49485,0.12276 0.0066,0.18069 0.338894,0.12633 0.506513,0.19414 0.21055,0.0852 0.42083,0.17129 0.62784,0.26474 0.945348,0.42672 1.853891,0.91825 2.761269,1.41905 0.366183,0.23094 0.738901,0.45182 1.09855,0.69281 1.00377,0.6726 1.548169,1.12055 2.542804,1.84503 1.617784,1.17837 3.238865,2.35154 4.852284,3.53613 2.62129,1.93603 5.359048,3.73025 7.827507,5.86662 0.264909,0.22927 0.513117,0.47715 0.769676,0.71573 0.493672,0.44004 0.864232,0.97926 1.205581,1.53894 0.08035,0.13175 0.147691,0.27194 0.2378,0.39722 0.103981,0.14456 0.228457,0.27321 0.342686,0.40982 0.133516,0.10242 0.255571,0.22184 0.400552,0.30727 0.130107,0.0767 0.267857,0.15775 0.417883,0.17498 0.377899,0.0434 0.767199,0.0738 1.141146,0.004 0.841769,-0.15686 0.871587,-1.54332 0.736417,-2.04561 -0.100714,-0.37425 -0.609788,-0.47852 -0.91468,-0.71778 -0.668235,-0.27007 -1.437651,-0.0731 -2.121242,-0.27586 -0.04137,-0.0123 0.03154,-0.1194 -0.01053,-0.12903 -0.323972,-0.0742 -0.662086,-0.0601 -0.991984,-0.10047 -1.229315,-0.15027 -0.952145,-0.1225 -2.187667,-0.43344 -2.398065,-0.8117 -4.438799,-2.3588 -6.562805,-3.68698 -2.609929,-1.63205 -2.308362,-1.41115 -5.0684,-2.89988 -2.40115,-1.20017 -4.895422,-2.22363 -7.525499,-2.79726 -1.105903,-0.2412 -2.059202,-0.36625 -3.173156,-0.32674 -0.292301,0.0104 -0.580348,0.0734 -0.870521,0.11009 -1.431401,0.24239 -1.980274,-0.0487 -2.108645,2.07153 -0.02381,0.3932 0.62942,0.89926 1.000363,1.05732 0.300861,0.12819 0.487188,0.12646 0.800563,0.1601 0.358254,-0.0383 0.732232,-0.003 1.074762,-0.1148 0.871283,-0.28419 0.704704,-1.45375 0.597064,-2.11834 -0.05775,-0.35656 -0.834388,-0.62053 -1.128927,-0.71478 -0.117499,-0.0224 -0.233159,-0.0591 -0.352497,-0.0671 -0.375139,-0.0252 -0.75171,-0.0198 -1.127487,-0.0323 -0.668687,-0.0222 -1.337596,-0.0466 -2.006177,-0.0723 -0.386201,0.004 -0.69324,2.6e-4 -1.076335,0.0306 -0.138208,0.0109 -0.47547,-0.0752 -0.413073,0.0486 0.07232,0.1435 0.330991,0.007 0.475996,0.0763 0.04927,0.0235 -0.142065,0.0293 -0.140711,0.0839 0.02262,0.9103 0.14029,1.81575 0.210434,2.72363 -0.177567,0.0397 -0.522841,-0.0626 -0.532704,0.11906 -0.01027,0.18908 0.342431,0.16176 0.512992,0.244 0.303255,0.14622 0.60455,0.29651 0.908442,0.4414 1.764422,0.84124 3.552539,1.63231 5.331677,2.44171 3.904882,1.87233 7.829703,3.70792 11.691146,5.66922 0.522047,0.29876 0.76898,0.40971 1.220613,0.7695 0.334412,0.26641 0.552289,0.51963 0.847228,0.83123 0.6912,0.73024 0.319627,0.34952 1.082677,1.10581 0.568286,0.53233 1.170938,1.02497 1.837166,1.43001 0.147304,0.0896 0.296924,0.17649 0.453552,0.2485 0.09632,0.0443 0.201702,0.13261 0.302236,0.099 0.0616,-0.0206 -0.01214,-0.12933 -0.0182,-0.194 -3.310279,2.86651 1.052097,-1.8083 0.4036,-2.1185 -0.198644,-0.095 -0.430318,-0.0944 -0.647298,-0.1319 -0.375216,-0.0649 -0.754692,-0.10442 -1.128828,-0.17527 -2.04696,-0.38761 -1.312993,-0.10246 -2.830497,-1.05663 -6.546456,-2.34242 -12.862652,-5.25293 -19.204027,-8.08828 -0.92479,-0.3999 -1.838058,-0.83098 -2.79772,-1.14439 -0.186547,-0.0609 -0.383252,-0.0856 -0.572005,-0.13933 -1.043221,-0.29677 -0.359768,-0.38564 -2.382491,-0.33176 -0.181152,0.005 -0.323181,0.16405 -0.484772,0.24608 -0.08913,-0.004 -0.178576,-0.003 -0.26738,-0.0109 -0.521087,-0.0493 -0.125696,-0.0607 -0.711735,-0.0451 -0.110321,0.003 -0.435697,-0.0137 -0.330496,0.0197 0.600371,0.19033 0.568449,-0.16055 0.563557,0.16658 0.768453,1.05099 1.194581,1.08015 0.04165,2.51792 -0.159213,0.19854 -0.549376,-0.0113 -0.749395,0.14604 -0.09818,0.0772 0.218437,0.12157 0.32368,0.18887 0.493705,0.31566 1.037167,0.71549 1.50078,1.04557 4.027088,2.95137 8.529643,5.12393 13.031999,7.23557 1.700221,0.80417 3.389149,1.66082 4.961718,2.69874 0.902626,0.59574 1.729346,1.29985 2.579611,1.96562 0.148402,0.11731 0.294809,0.2372 0.445204,0.35195 0.101788,0.0777 0.200742,0.16039 0.311179,0.22517 0.31837,0.18674 0.0037,-0.5133 0.187126,-0.6039 0.721905,-0.35659 1.544828,-0.45467 2.317242,-0.682 0.0058,0.008 0.02461,0.0317 0.01733,0.0247 -0.14646,-0.13948 -0.282435,-0.29024 -0.43524,-0.42274 -0.244049,-0.21161 -1.152094,-0.8562 -1.293548,-0.95246 -1.716132,-1.16793 -1.685271,-1.09615 -3.743521,-2.30491 -1.009885,-0.51559 -2.002274,-1.06699 -3.029653,-1.54677 -2.093516,-0.97768 -4.736621,-2.02126 -6.925985,-2.76579 -2.037143,-0.69277 -3.61161,-1.15397 -5.694759,-1.51765 -0.577951,-0.1009 -1.165797,-0.13324 -1.748695,-0.19986 -0.162171,0.005 -1.47596,-0.006 -1.780085,0.15679 -0.669449,0.35849 -1.277437,0.82241 -1.897258,1.26116 -0.03063,0.0217 -0.05693,0.13757 -0.03536,0.10687 0.961046,-1.36826 0.293595,-1.04381 1.465003,-1.32251 -1.267901,-0.96182 -2.649987,-1.80725 -4.114032,-2.43952 -0.253998,-0.1097 -0.517856,-0.19498 -0.776785,-0.29247 -0.94712,-0.27917 -1.791963,-0.41667 -2.797319,-0.16656 -0.441143,0.10975 -0.859557,0.69463 -1.092536,1.05978 -0.232976,0.74239 -0.361654,0.82716 0.193086,1.80091 0.152872,0.26833 0.843352,0.58916 1.142774,0.7406 1.523051,0.77034 -0.157426,-0.0883 1.863763,0.94914 0.548481,0.27982 1.100537,0.55275 1.645447,0.83947 2.82158,1.48464 5.589854,3.07154 8.370943,4.62975 4.924424,2.75909 2.566408,1.43159 7.598536,4.28055 3.533662,2.00647 7.017348,4.10372 10.630318,5.96754 0.69241,0.35719 2.997875,1.52618 3.993629,1.8232 0.222986,0.0665 0.46468,0.0257 0.697018,0.0386 0.885881,-5.40778 -0.641479,0.73309 1.573123,-2.45284 0.133583,-0.19218 -0.351891,-0.30942 -0.539382,-0.4495 -0.565759,-0.42269 -1.084202,-0.74848 -1.739313,-0.99958 0.08569,0.7515 0.19014,1.19711 -0.493387,2.03719 -0.208119,0.25579 -0.67818,0.0427 -0.96937,0.19746 -0.09864,0.0524 0.193051,0.11286 0.293487,0.16175 0.355936,0.17325 0.329668,0.15198 0.665271,0.24735 -0.442061,-1.08302 0.403894,1.11846 0.06902,-2.14751 -0.0195,-0.19016 -0.298167,-0.24372 -0.417761,-0.39284 -0.06585,-0.0821 -0.02971,-0.25228 -0.12858,-0.28837 -0.403069,-0.14713 -2.42353,-0.39403 -2.801191,-0.44477 -1.242751,-0.0889 -1.289809,-0.11525 -2.444253,-0.12054 -0.220816,-0.001 -0.441946,2.7e-4 -0.662291,0.0148 -0.07125,0.005 -0.15434,-0.002 -0.209942,0.0425 -0.02596,0.0209 0.04547,0.12031 0.04902,0.0872 0.0066,-0.0614 -0.02598,-0.12063 -0.03897,-0.18094 -0.387077,-1.24506 -1.286086,-2.25006 -2.550043,-2.64528 -0.209238,-0.0654 -0.431102,-0.0799 -0.646653,-0.11993 -0.440293,0.0172 -0.886034,-0.0195 -1.320879,0.0516 -0.749689,0.12268 -1.00054,1.75754 -0.965859,1.95762 0.08161,0.47076 0.606068,0.79471 1.046835,0.97911 0.144272,0.0604 2.619203,0.20949 2.94323,0.23041 3.574505,0.12676 7.185626,0.14238 10.732609,-0.39082 0.482298,-0.0725 0.95705,-0.18847 1.435576,-0.28271 -0.04925,-0.10701 -0.165846,-0.20463 -0.147757,-0.32104 0.02048,-0.13175 0.164396,-0.20996 0.246595,-0.31493 -0.132536,-0.81762 -0.218274,-1.64421 -0.397608,-2.45284 -0.02461,-0.11095 -0.105304,-0.2196 -0.206523,-0.27127 -0.145117,-0.0741 -0.477293,0.0826 -0.482153,-0.0803 -0.0048,-0.15978 0.319574,-0.009 0.479361,-0.0132 -0.03182,0.0282 -0.11466,0.0467 -0.09547,0.0847 0.07803,0.1544 0.257487,0.24087 0.337513,0.39424 0.105516,0.20221 0.151069,0.431 0.208301,0.65179 0.08878,0.34252 -0.05838,0.42503 0.342657,0.26546 0.04129,-0.0178 0.0826,-0.0356 0.123872,-0.0534 0.02233,-0.01 0.02267,-0.0452 0.02236,-0.0695 -0.01138,-0.84865 0.04484,-1.70451 -0.07191,-2.54516 -0.02167,-0.15612 -0.213532,-0.2323 -0.328758,-0.33984 -0.245099,-0.22876 -0.501033,-0.44562 -0.751549,-0.66843 -2.936385,-2.40419 -6.055233,-4.57073 -9.072544,-6.86939 -1.456547,-1.03426 -2.407787,-2.58337 -3.705264,-3.77941 -0.187878,-0.17319 -0.39715,-0.32162 -0.595726,-0.48243 -0.842679,-0.4892 -1.74526,-0.9352 -2.770444,-0.36753 -0.681037,0.3771 -0.712679,1.18486 -0.594423,1.80209 0.03092,0.16135 0.128902,0.30223 0.193352,0.45335 0.492501,0.71184 1.065721,0.99048 2.014112,0.91894 0.513757,-0.0388 0.627274,-0.55705 0.523544,-0.18318 0.578876,0.12399 -0.208299,0.40106 -0.08184,0.52512 0.282565,0.27724 0.723353,0.32198 1.088438,0.47499 0.516141,0.21633 1.033378,0.43031 1.555041,0.63297 1.945632,0.75583 1.784908,0.66919 3.798731,1.30751 1.666394,0.38667 3.436837,0.97747 5.166934,0.62785 0.496742,-0.10038 1.23281,0.10297 1.48226,-0.33817 0.387791,-0.6858 0.03014,-1.57541 0.04522,-2.36312 -0.351459,-0.36749 -0.787257,-0.54358 -1.25221,-0.71129 -0.183417,-0.11684 -1.835867,2.47704 -1.652449,2.59389 v 0 c 0.301,0.13249 0.598805,0.2921 0.939329,0.25526 0.777165,-3.78415 -0.426236,-1.20341 1.714359,-2.36497 0.116277,-0.0631 -0.164486,-0.21178 -0.271687,-0.2893 -0.245224,-0.17732 -0.509103,-0.32886 -0.777224,-0.46918 -1.171644,-0.6132 -1.667206,-0.75628 -2.962773,-1.25632 -0.668877,-0.21892 -1.329668,-0.46429 -2.006631,-0.65676 -2.449883,-0.69651 -5.133359,-1.13421 -7.671851,-0.64511 -0.208938,0.0402 -0.377772,0.19593 -0.56666,0.2939 -0.09249,0.0691 -0.391002,0.22804 -0.277472,0.20719 0.169159,-0.0311 0.284875,-0.23247 0.456695,-0.24011 0.01556,-8e-4 1.134031,-0.0515 1.291243,0.36575 0.0069,0.0182 0.0033,0.0388 0.0049,0.0581 0.0069,0.48979 -0.07849,1.1022 -0.625189,1.34954 -0.394584,0.17852 -0.864756,0.0496 -1.297133,0.0744 -0.04099,-0.0285 -0.07401,-0.0956 -0.122965,-0.0856 -0.03977,0.008 0.05062,0.0634 0.07593,0.0952 1.215771,1.6045 2.016072,3.49076 3.313353,5.04356 0.398655,0.4743 0.769353,0.97358 1.195972,1.42289 2.089232,2.20035 4.668882,3.96883 7.459363,5.15683 0.5587,0.23786 1.145432,0.40358 1.718146,0.60537 0.425673,0.0966 0.847352,0.21286 1.27702,0.28974 0.245443,0.0439 0.646438,0.30125 0.744556,0.072 0.322932,-0.75445 0.213471,-1.62834 0.271981,-2.44691 0.0024,-0.035 -0.0587,-0.0506 -0.09366,-0.0479 -0.274473,0.0211 -0.545195,0.14512 -0.796869,0.23968 -0.148844,0.0874 -0.309827,0.15681 -0.446532,0.26219 -0.425268,0.32782 -0.855361,0.77166 -0.950093,1.33567 -0.157525,0.93785 0.06501,1.46448 0.713936,2.09783 0.178149,0.17387 0.429078,0.25252 0.643618,0.37878 0.688691,0.0505 1.569489,0.2521 2.280798,-0.0178 0.261503,-0.0992 0.674716,-0.13644 0.731993,-0.41021 0.177586,-0.84885 0.04567,-1.74516 -0.102298,-2.59966 -0.03464,-0.20004 -0.231286,-0.37267 -0.423646,-0.43758 -0.643323,-0.21712 -1.334013,-0.25381 -2.001022,-0.38071 -0.566042,-0.0802 -1.128112,-0.19674 -1.698125,-0.2405 -3.070365,-0.23571 -6.207337,0.13739 -9.164262,0.97629 -0.533204,0.15128 -1.050221,0.35468 -1.575334,0.53202 -0.314852,0.13347 -0.72962,0.13442 -0.944555,0.40041 -0.102224,0.1265 0.317027,0.12322 0.419113,0.24984 0.220681,0.27369 0.536189,0.5655 0.521529,0.91678 -0.02397,0.57458 -0.411226,1.07421 -0.626867,1.60733 -0.01879,0.0464 -0.02641,0.12126 -0.07577,0.12977 -0.241292,0.0416 -0.489664,0.007 -0.734496,0.01 0.744103,0.021 1.009388,0.10085 1.31791,0.84867 0.278742,0.64328 0.37052,0.97044 0.856732,1.53597 0.997328,1.16003 2.558478,1.48224 3.983807,1.74651 0.537689,0.0539 1.073222,0.13752 1.613062,0.1618 0.937178,0.0422 3.024298,-0.0634 3.81309,-0.22842 0.36894,-0.0772 0.819854,-0.15566 1.028734,-0.46942 0.397981,-0.5978 0.570947,-1.34008 0.65105,-2.05376 0.02596,-0.23116 -0.235315,-0.40132 -0.352973,-0.60198 -0.133456,-0.10729 -0.25541,-0.23071 -0.400365,-0.32187 -0.653253,-0.41079 -2.27103,-0.87271 -2.880817,-0.46198 -1.310852,0.88295 -0.953209,1.5735 -0.71028,2.5428 0.11787,0.19019 0.209976,0.399 0.353608,0.57057 0.434202,0.51866 0.98217,0.9258 1.576903,1.24215 0.344581,0.18329 0.68693,0.42695 1.075585,0.46271 0.829587,0.0763 1.814808,0.34596 2.495674,-0.13411 0.60652,-0.42765 0.463034,-1.41017 0.694552,-2.11526 -0.08147,-0.393 -0.08168,-0.81211 -0.244406,-1.17899 -0.595929,-1.34357 -1.865921,-2.70441 -2.876349,-3.6634 -3.080186,-2.92338 -6.695307,-5.17838 -10.389968,-7.23242 -1.396584,-0.71885 -2.772648,-1.47904 -4.189748,-2.15655 -5.16197,-2.4679 -10.632704,-4.39902 -16.309297,-5.22344 -1.06716,-0.0974 -1.496682,-0.17984 -2.479466,-0.14503 -0.156223,0.006 -0.3808,-0.0748 -0.465546,0.0565 -0.07544,0.11693 0.154747,0.23738 0.188921,0.37227 0.265675,1.04869 0.295922,0.81206 0.103401,1.40451 0.01353,-0.004 0.04104,-0.0261 0.04057,-0.0121 -0.0019,0.0581 -0.158504,0.18716 -0.170369,0.18853 -0.294057,0.0342 -0.592074,0.007 -0.888093,0.004 -0.0109,-1.1e-4 0.02006,-0.009 0.03009,-0.0128 0.09772,0.0728 0.195447,0.14568 0.293171,0.21852 1.633178,1.22285 3.395488,2.33316 5.413695,2.77709 0.557551,0.055 1.143262,0.34825 1.672648,0.16486 0.529821,-0.18353 0.828315,-0.75741 1.213671,-1.16471 0.03043,-0.0322 0.05283,-0.15218 0.01334,-0.13217 -0.637601,0.32299 -1.256131,0.68452 -1.859646,1.06744 -0.06533,0.0415 -0.161898,0.12414 -0.127947,0.19367 0.117822,0.24127 0.348054,0.40895 0.522081,0.61342 0.421318,0.34149 0.817237,0.71694 1.263955,1.02446 1.588148,1.09327 3.231504,1.92262 5.00127,2.70107 3.414892,1.50209 6.975599,2.66058 10.626214,3.43096 2.028082,0.36563 2.916672,0.58968 4.844286,0.74049 0.368363,0.0288 0.739349,0.035 1.10835,0.016 0.123367,-0.006 0.305138,0.0196 0.359124,-0.0915 0.04968,-0.10225 -0.140398,-0.18546 -0.171437,-0.29481 -0.01871,-0.0659 0.08824,0.10476 0.132366,0.15714 0.81045,-0.19167 1.671521,-0.2341 2.431354,-0.57502 0.16514,-0.0741 0.05161,-0.35929 0.05439,-0.54027 0.01085,-0.70677 -0.333261,-1.38377 -0.641668,-1.99212 -0.172548,-0.27334 -0.330597,-0.55638 -0.517641,-0.82 -1.742451,-2.45584 -4.106495,-4.39541 -6.555086,-6.1065 -0.758323,-0.47675 -1.495653,-0.98865 -2.274965,-1.43026 -3.727921,-2.11249 -7.788383,-3.54271 -11.890676,-4.72728 -0.430572,-0.12518 -0.860237,-0.25352 -1.291717,-0.37552 -0.326565,-0.0923 -1.299742,-0.38012 -1.706864,-0.39967 -0.480153,-0.023 -1.046515,-0.24243 -1.441781,0.0311 -0.520343,0.36015 -0.9052,1.00483 -0.965195,1.6348 -0.03982,0.41811 0.473605,0.69377 0.710409,1.04065 0.683567,0.38277 0.314225,0.24184 1.579684,0.29486 0.872914,0.0366 1.708711,-0.23174 2.384746,-0.78632 -0.231725,-0.56702 -0.06068,-0.18944 -1.68537,-0.33238 -0.05674,-0.005 -0.12351,0.0685 -0.116483,0.12502 0.03213,0.25836 0.11797,0.51063 0.225042,0.74795 0.617545,1.36877 0.940961,1.55274 1.995805,2.83421 0.718693,0.64738 1.392605,1.34824 2.156079,1.94216 2.103292,1.63618 4.311935,2.93363 6.73813,4.04529 2.790579,1.27863 5.40312,2.17037 8.427024,2.7192 1.28428,0.23309 2.596401,0.27111 3.894603,0.40666 1.36551,-0.0505 2.736157,-0.0227 4.096528,-0.15139 0.609441,-0.0576 1.914477,-0.46067 2.613766,-0.6793 0.06719,-0.021 1.016222,-0.31935 1.053999,-0.3899 0.324567,-0.60611 0.425554,-1.30757 0.638331,-1.96136 -0.0569,-0.14232 -0.180837,-0.48315 -0.278704,-0.62566 -0.536352,-0.78105 -1.327703,-1.37249 -2.096442,-1.9016 -0.255489,-0.16107 -0.791593,-0.48356 -1.045583,-0.69503 -0.749096,-0.62369 -1.011219,-1.63615 -1.611836,-2.3776 -0.912029,-1.13521 -1.090687,-1.45393 -2.292644,-2.47039 -2.823815,-2.38801 -6.20781,-3.98774 -9.700667,-5.1296 -0.852548,-0.21809 -1.698077,-0.46572 -2.557645,-0.65425 -2.355186,-0.51655 -4.781391,-0.74165 -7.1901,-0.67908 -0.06297,0.91151 -0.172884,1.82099 -0.188925,2.73454 -0.0011,0.0555 0.08439,0.0832 0.139311,0.0911 0.351017,0.0502 0.707387,0.0507 1.060712,0.0806 0.525039,0.0445 1.049009,0.0972 1.577451,0.0556 0.51218,-0.0397 1.024159,-0.0768 1.535271,-0.12874 0.125608,-0.0128 0.460592,0.0547 0.376685,-0.0397 -0.09919,-0.11152 -0.307391,0.0167 -0.446109,-0.0384 -0.06947,-0.0276 0.145383,-0.0348 0.218072,-0.0521 0.279514,-0.21212 -0.186867,-0.17634 -0.200152,-0.52113 -0.0181,-0.46962 -0.187944,-1.7019 0.574919,-1.94259 0.263726,-0.0832 0.551127,-0.0465 0.82669,-0.0697 -0.02212,0.0426 -0.246888,0.0754 -0.24647,0.0784 0.03246,0.22743 0.303557,0.42046 0.247497,0.64325 -0.46777,1.85898 -0.446747,1.61971 -1.69123,1.86661 0.810212,0.58853 1.70851,0.97987 2.608059,1.41665 2.186982,1.06191 4.375504,2.12068 6.557137,3.19356 2.550906,1.2443 5.101214,2.49024 7.711609,3.60697 1.11956,0.47894 2.922685,1.21099 4.117297,1.58345 0.560653,0.1748 1.136947,0.29479 1.70542,0.44218 0.500033,0.0848 0.99673,0.19243 1.500105,0.25441 1.413026,0.17399 2.89846,0.0979 4.306502,-0.0542 0.219305,-0.0237 0.514768,0.0351 0.646334,-0.14197 0.08877,-0.11945 -0.273788,-0.11676 -0.410683,-0.17514 -0.165296,-0.22464 -0.475078,-0.39578 -0.495885,-0.6739 -0.04155,-0.55532 0.131678,-1.1161 0.322826,-1.63914 0.049,-0.13408 0.21958,-0.20897 0.360627,-0.23099 0.64724,-0.10105 0.912963,-0.13083 1.193721,0.30907 0.02832,0.056 0.09512,0.22589 0.09406,0.16313 -0.01603,-0.94338 -0.279355,-1.85964 -0.627541,-2.72995 -0.65541,-1.23794 -0.724122,-1.50627 -1.666438,-2.64921 -1.916936,-2.32506 -4.419262,-4.04967 -6.943789,-5.64711 -1.208704,-0.73098 -2.421829,-1.45467 -3.627779,-2.19019 -1.933199,-1.17907 -3.847951,-2.39793 -5.879808,-3.40439 -0.419209,-0.19322 -0.831141,-0.40307 -1.257629,-0.57964 -1.027485,-0.42539 -2.134462,-0.77821 -3.241987,-0.91871 -0.487603,-0.0619 -1.716542,-0.0268 -2.043766,-0.0241 -0.196106,0.0504 0.51598,2.82375 0.712089,2.7734 z" />
        <path
           style="fill:#999999;fill-opacity:0.154882;stroke:none;stroke-width:0.264583"
           id="path7390"
           d="m 43.733159,180.02798 c 0.152706,0.14357 0.300574,0.29247 0.458118,0.43071 1.166624,1.02373 2.370084,1.99768 3.509907,3.0535 1.226192,1.13583 2.434822,2.34275 3.625513,3.51306 3.485735,3.50062 7.094657,6.89163 10.972716,9.95625 1.03633,0.84426 2.277689,1.35715 3.407809,2.04694 0.333875,0.26277 0.683472,0.51134 1.049922,0.72721 0.10309,0.0607 0.208182,0.11876 0.317381,0.16765 0.06547,0.0293 0.198676,0.13762 0.204775,0.0661 0.01508,-0.17667 -0.111554,-0.33663 -0.167328,-0.50495 0.611722,-0.57126 1.334471,-1.04307 1.835168,-1.71377 0.09068,-0.12148 -0.19268,-0.23499 -0.301887,-0.34012 -0.23192,-0.22327 -0.47354,-0.43658 -0.720018,-0.64367 -1.549077,-1.30152 -3.197434,-2.49294 -4.806818,-3.71689 -0.858308,-0.63024 -1.710555,-1.26882 -2.574925,-1.89072 -2.248897,-1.61805 -3.835588,-2.73408 -6.197505,-4.21072 -2.698543,-1.6871 -5.495446,-3.2185 -8.2771,-4.76225 -1.381686,-0.76531 -1.687462,-0.93732 -2.946048,-1.62639 -0.226984,-0.12427 -0.446514,-0.26357 -0.681898,-0.37108 -0.09102,-0.0416 -0.226073,-0.14939 -0.29111,-0.0733 -0.09886,0.1156 0.03027,0.31767 -0.03524,0.45495 -0.209684,0.43945 -0.515469,0.8262 -0.773205,1.2393 -0.417491,-0.0282 -0.834982,-0.0565 -1.252474,-0.0847 -0.150645,-0.099 0.155139,0.15254 0.154147,0.12874 -0.05204,-1.24951 -0.904473,1.64249 0.479702,-1.73127 0.977265,0.0274 2.054273,0.41902 1.414061,-0.16316 -0.05669,-0.0515 -0.240586,-0.22105 -0.210214,-0.10832 0.0628,0.2331 0.152476,0.45812 0.228713,0.68718 -0.554847,0.47358 -1.109694,0.94717 -1.664544,1.42075 -0.0843,-0.0197 -0.17091,-0.0867 -0.252894,-0.059 -0.04325,0.0147 0.02276,0.0897 0.0458,0.12911 0.202306,0.34616 0.466302,0.67264 0.702027,0.99588 0.01754,0.0228 0.28951,0.39911 0.376669,0.44374 0.02106,0.0108 0.03825,-0.034 0.04184,-0.0574 0.0236,-0.15355 -0.04,-0.33032 0.03835,-0.46447 0.21263,-0.36409 0.410202,-0.82486 0.803447,-0.97695 0.400989,-0.15508 0.852204,0.11455 1.278308,0.17183 -0.07607,-0.0928 0.215479,0.18855 0.136768,0.18878 -0.02545,8e-5 -0.04011,-0.0596 -0.06133,-0.0456 -2.168774,1.4395 -1.970858,0.67362 -2.19334,1.57109 0.26756,0.44416 0.600268,0.86109 1.045612,1.13562 0.298114,0.0662 -0.197922,-0.0203 -0.111892,-0.46188 0.09777,-0.50187 0.388413,-0.94621 0.565491,-1.42588 0.01259,-0.0341 0.03504,-0.0959 0.0011,-0.10908 -0.106817,-0.0416 -0.228513,-0.0203 -0.343096,-0.0243 -0.185142,-0.006 -0.370474,-0.004 -0.555712,-0.007 -2.421813,0.15939 -4.795147,0.72973 -7.1433,1.31465 -0.634884,0.36232 -1.416669,0.21575 -2.076847,0.47807 -0.08939,0.0355 0.315868,-0.0261 0.281456,0.0637 -0.102103,0.26652 -0.500748,-0.0962 -0.324038,0.26983 0.08559,0.17728 0.205214,0.33601 0.307819,0.50402 0.349589,0.205 -0.03759,0.58113 0.07603,0.83731 0.01775,0.04 0.416671,-0.21498 0.178189,-0.12828 -0.01281,-0.78672 0.04147,-1.57741 -0.03842,-2.36017 -0.01437,-0.14074 -0.833583,-0.41581 -0.995058,-0.44269 -0.711094,0.50896 0.606071,-0.45112 -0.395758,2.39674 -0.05945,0.16899 -0.452353,-0.0466 -0.524434,0.11744 -0.05827,0.13258 0.27308,0.0968 0.411316,0.13992 0.581719,0.18168 0.840804,0.24103 1.45778,0.40294 1.131279,0.29308 2.28994,0.54593 3.356751,1.03927 0.569579,0.2634 0.952277,0.52024 1.486913,0.8483 1.652791,1.12512 3.451712,1.9958 5.283086,2.78463 1.109901,0.46995 2.250699,0.86638 3.401039,1.22501 0.585044,0.13823 1.016717,0.48665 1.453576,0.87736 0.357878,0.27817 1.034785,0.83857 1.491715,0.92078 0.03523,0.006 0.07688,-0.0181 0.09579,-0.0486 0.470702,-0.75665 0.909678,-1.53259 1.364518,-2.29888 -0.07419,-0.11812 -0.128159,-0.25168 -0.222579,-0.35435 -0.67778,-0.73702 -2.241081,-2.08716 -2.850067,-2.57925 -1.872113,-1.51277 -3.849929,-2.94356 -5.88925,-4.22069 -1.121555,-0.70238 -2.289968,-1.32701 -3.434953,-1.99051 -1.073594,-0.51653 -2.124225,-1.0838 -3.220786,-1.54961 -1.333103,-0.56628 -3.004854,-1.16679 -4.501218,-1.28136 -1.439741,-0.11024 -2.569848,0.77333 -3.252666,2.17912 -0.189159,0.38944 0.404823,0.76544 0.607237,1.14816 0.608904,0.69767 1.320173,1.30196 2.139482,1.73972 0.159364,0.0851 0.326948,0.15789 0.500504,0.20814 0.08248,0.0239 0.20293,0.0777 0.257347,0.0113 0.584719,-0.71367 1.059842,-1.5105 1.589762,-2.26574 -0.173799,-0.0574 -0.338373,-0.17454 -0.521396,-0.17227 -0.529772,0.007 -1.068477,0.0497 -1.577022,0.19827 -0.306329,0.0895 -0.554956,0.31722 -0.815893,0.50096 -0.692412,0.48758 -1.195247,1.06866 -1.709155,1.72908 -0.108818,0.19509 -0.234511,0.38169 -0.326457,0.58528 -0.300169,0.66467 -0.32744,1.45505 0.0094,2.12432 0.161081,0.32002 0.862907,0.88304 1.16957,1.144 2.949572,2.30146 6.222095,4.16465 9.626565,5.70453 0.874456,0.39552 1.769023,0.74499 2.653535,1.11748 0.750078,0.25756 1.491046,0.54334 2.250231,0.77266 0.539483,0.16296 1.086369,0.30847 1.641938,0.40302 0.289936,0.0494 0.650629,0.20818 0.881915,0.0265 0.179607,-0.14107 -0.159078,-0.48565 -0.04527,-0.68366 1.469837,-2.55746 2.387311,-1.41049 1.031348,-2.58977 -2.569659,-1.77245 -5.408422,-3.10417 -8.226366,-4.42678 -1.332326,-0.57661 -2.6328,-1.25477 -4.03511,-1.65275 -0.245147,-0.0696 -0.486056,-0.1998 -0.74067,-0.18933 -0.638069,0.0262 -1.261713,0.1984 -1.89257,0.29761 -0.252142,0.30273 -0.537808,0.58043 -0.75643,0.90818 -0.208981,0.31331 -0.562332,1.23424 -0.684244,1.59467 -0.200835,0.59375 -0.411808,1.36776 -0.515189,1.97698 -0.07026,0.41403 -0.101153,0.83378 -0.151731,1.25067 -0.169534,2.11289 0.200615,4.2196 1.389351,6.01203 0.760484,1.14668 1.159177,1.35631 2.183858,2.20754 0.907629,0.55736 1.898174,1.06466 2.990188,1.0978 0.484614,0.0147 1.015204,0.15699 1.453653,-0.05 0.424968,-0.20059 0.902255,-0.59999 0.918347,-1.06965 0.02368,-0.69111 -0.544226,-1.27145 -0.816337,-1.90718 -0.285163,-0.20465 -0.567989,-0.41259 -0.855485,-0.61394 -2.019001,-1.41407 -0.6677,-0.42503 -3.105121,-2.14554 -2.535513,-1.78974 -5.022517,-3.64401 -7.505377,-5.50557 -1.275302,-0.96315 -2.877066,-2.1889 -4.203078,-3.13619 -0.414768,-0.2963 -0.822677,-0.60512 -1.262103,-0.86345 -0.175749,-0.10332 -0.443152,-0.37264 -0.572538,-0.21509 -2.28666,2.78437 2.960118,-0.47534 -1.789526,2.00586 0.112014,0.13581 0.21591,0.27874 0.336043,0.40741 0.412943,0.44232 1.013403,0.9899 1.448511,1.3905 1.004975,0.92528 2.049252,1.79581 3.099544,2.66901 3.038529,2.44679 6.310483,4.5799 9.471862,6.86106 0.908092,0.69991 1.890107,1.36717 2.599082,2.28749 0.378983,0.49195 0.586057,1.08445 0.800417,1.65808 0.426416,1.08558 0.622424,2.2339 0.896998,3.36181 0.222407,0.8405 0.399651,1.70259 0.714394,2.51584 0.194686,0.50304 0.291788,0.64769 0.543062,1.10901 0.222023,0.35578 0.480722,0.68175 0.819357,0.93241 0.174863,0.12943 0.331144,0.44673 0.535733,0.37275 2.235148,-0.80814 2.121879,-0.61638 1.946307,-1.75377 -0.224194,-1.10551 -0.795208,-2.09554 -1.509046,-2.96177 -0.357952,-0.43437 -0.768551,-0.82253 -1.152829,-1.23379 -1.578713,-1.36996 -3.339438,-2.69514 -5.405633,-3.21809 -0.486529,-0.12314 -0.96506,-0.10292 -1.459177,-0.10947 -0.949918,1.60921 -2.149586,1.90854 -0.975614,2.8027 0.152164,0.11589 0.326985,0.20459 0.507542,0.26773 0.211617,0.074 0.437695,0.18203 0.65786,0.13978 0.569548,-0.10929 1.177526,-0.23086 1.640028,-0.58074 0.28162,-0.21304 0.277132,-0.64961 0.415697,-0.97441 -0.02196,-0.26921 -0.02074,-0.54133 -0.06586,-0.80763 -0.02561,-0.15114 -0.0882,-0.29403 -0.144966,-0.43642 -0.03181,-0.0798 -0.09839,-0.31125 -0.119959,-0.2281 -0.06733,0.25953 0.146254,0.60125 -0.02939,0.80382 -1.393012,1.60654 -2.154753,0.40511 -1.047937,1.60702 3.103999,2.67574 6.5538,4.98578 10.267309,6.73133 0.638143,0.29996 1.300141,0.54631 1.950212,0.81947 -0.207875,-0.78635 1.785665,1.02313 2.071923,0.38185 0.304655,-0.6825 -0.113652,-1.59564 0.292505,-2.22306 0.264417,-0.40846 1.04113,-0.0745 1.404363,-0.39822 0.159631,-0.14228 -0.309488,-0.29649 -0.479655,-0.42598 -0.191479,-0.14572 -0.40168,-0.26503 -0.60252,-0.39754 -0.19191,-0.0998 -0.37796,-0.21184 -0.575733,-0.29948 -0.27477,-0.12176 -0.581131,-0.19282 -0.580496,-0.10987 0.0037,0.47868 0.458518,1.02618 0.19123,1.42329 -0.942863,1.40084 -2.267899,0.40454 -1.57743,0.89656 0.03729,0.0138 0.320628,0.14126 0.371859,0.0665 0.542137,-0.7916 1.256363,-1.53161 1.491414,-2.46181 0.09033,-0.35748 -0.404373,-0.61879 -0.641686,-0.90098 -1.176941,-1.39948 -1.678787,-1.73125 -3.139914,-3.02181 -2.042197,-1.60129 -4.186697,-3.09349 -6.529533,-4.22585 -0.866669,-0.41889 -1.754303,-0.76725 -2.700572,-0.94786 -0.236093,-0.0451 -0.479111,-0.0392 -0.718667,-0.0588 -2.278639,0.57431 -2.235131,-0.13258 -2.225895,2.06701 2.65e-4,0.093 0.200309,0.46278 0.300377,0.54737 0.015,0.0127 0.03174,-0.0299 0.03192,-0.0495 0.0013,-0.13172 -0.01855,-0.26279 -0.0278,-0.39418 -0.0021,0.19217 2.715493,0.22268 2.717649,0.0305 v 0 c -0.01688,-0.33911 0.0019,-0.73827 -0.191103,-1.04311 -0.03425,-0.0541 -0.101039,-0.20071 -0.128508,-0.14285 -0.168466,0.35486 -0.01183,0.91177 -0.339426,1.12852 -0.555017,0.36721 -1.305174,0.2609 -1.957763,0.39134 0.01828,0.10248 0.004,0.21659 0.05485,0.30746 0.355211,0.6353 1.190085,1.50788 1.649214,1.93551 1.907479,1.77662 4.102576,3.20146 6.362311,4.4838 1.665346,0.81364 2.585429,1.35285 4.304141,1.89097 0.390954,0.1224 0.849823,0.45513 1.203605,0.24857 0.845098,-0.49342 1.376612,-1.39302 2.019779,-2.13057 0.107633,-0.12343 -0.75846,-0.3582 -0.412017,-0.26761 -0.860126,-0.20443 -1.524063,-0.44083 -2.423872,0.64174 -0.473749,0.56998 0.18278,1.79538 0.66253,2.2248 0.165735,0.14835 0.35623,0.26647 0.534345,0.3997 0.224531,0.12828 0.440452,0.27296 0.673589,0.38484 0.750507,0.36014 2.343354,0.83895 2.937471,0.32817 0.524282,-0.45074 0.593092,-2.2295 0.100483,-2.97377 -0.255228,-0.38561 -0.601969,-0.70212 -0.902954,-1.05318 -0.527383,-0.44202 -1.03083,-0.91428 -1.58215,-1.32605 -1.484051,-1.10841 -3.096421,-2.08187 -4.738063,-2.93434 -1.689603,-0.87738 -3.290369,-1.58016 -5.095319,-2.16716 -0.624256,-0.20301 -1.269146,-0.33603 -1.90372,-0.50404 -1.535856,-0.27896 -2.081009,-0.61448 -3.699079,0.62562 -0.22938,0.1758 -0.191037,0.92415 -0.04779,1.26757 0.01884,0.0452 0.04503,0.15477 0.08148,0.12212 0.06828,-0.0612 0.05129,-0.17601 0.07693,-0.26402 0.110027,-0.16792 0.150325,-0.41437 0.330086,-0.50376 0.410033,-0.20389 0.881716,-0.25902 1.334982,-0.3242 0.05493,-0.008 0.131611,0.0606 0.120486,0.11492 -0.0098,0.0481 -0.0997,-10e-4 -0.146662,0.013 -0.05788,0.0175 -0.12374,0.0343 -0.162493,0.0807 -0.572493,0.68597 -1.107186,1.40262 -1.660779,2.10394 -0.12345,0.002 -0.341903,-0.11323 -0.370348,0.007 -0.03588,0.15155 0.170206,0.26362 0.280183,0.3739 0.460846,0.46209 1.290809,1.07304 1.783334,1.4232 1.042625,0.74126 1.671584,1.12438 2.755477,1.8177 0.437216,0.25472 0.871119,0.51523 1.311653,0.76417 0.320495,0.18111 0.646295,0.3527 0.971161,0.52585 0.381153,0.20315 0.754531,0.32899 0.961665,0.72448 0.03534,-0.9687 -0.04265,-0.71504 2.032056,-1.41479 0.177702,-0.0599 0.626432,0.67593 0.397364,0.12093 -0.03423,-0.0829 -0.07183,-0.16445 -0.107746,-0.24668 -0.4019,-1.02082 -0.701546,-2.07109 -0.961213,-3.13662 -0.296659,-1.1414 -0.657651,-2.26618 -0.884468,-3.42477 -0.171545,-0.87598 -0.336939,-1.76845 -0.660061,-2.60476 -0.558324,-1.44507 -1.450954,-2.69164 -2.502053,-3.82053 -0.497507,-0.45629 -0.973064,-0.93773 -1.492518,-1.36887 -2.585569,-2.14597 -5.589677,-3.70462 -8.514905,-5.32122 -1.00887,-0.60847 -1.294011,-0.74065 -2.198914,-1.42843 -1.297289,-0.98603 -2.444844,-2.19798 -3.995624,-2.80278 -0.880017,0.14559 -1.89162,-0.0485 -2.640051,0.43678 -0.493188,0.31977 -0.505967,1.07909 -0.594199,1.66021 -0.150003,0.98796 0.46426,2.28017 0.924201,3.03844 1.254616,2.0684 2.080202,2.65475 3.849762,4.42412 0.96354,0.73319 1.883314,1.52776 2.890621,2.19955 2.00729,1.33868 3.910308,2.28481 6.163193,3.11334 1.385869,0.50967 2.884823,0.90952 4.365495,1.04418 0.319408,0.029 0.640959,-0.0251 0.961438,-0.0376 -0.0577,-1.23959 -0.467569,-1.8017 0.76912,-2.49516 0.234304,-0.13138 0.55373,0.0657 0.805389,-0.0283 0.110511,-0.0413 -0.213863,-0.0998 -0.318929,-0.15338 -0.578162,-0.29514 -0.581324,-0.30972 -1.182899,-0.66199 -0.634945,-0.50482 -0.822709,-0.59007 -1.324316,-1.26366 -0.882672,-1.1853 -1.2367,-2.59681 -1.28913,-4.05496 -0.0013,-0.32472 -0.01535,-0.64962 -0.0043,-0.97416 0.02384,-0.70243 0.08233,-1.00813 0.182856,-1.688 0.03212,-0.21721 0.07351,-0.43315 0.09865,-0.65128 0.01312,-0.11379 0.109664,-0.27742 0.01593,-0.34327 -0.09025,-0.0634 -0.198046,0.0972 -0.297066,0.14574 -0.434637,0.005 -0.869506,-2.6e-4 -1.303904,0.0148 -0.01725,5.3e-4 0.03043,0.0172 0.04278,0.0292 0.13875,0.13567 0.268878,0.2801 0.409906,0.41341 0.923591,0.873 1.917359,1.66708 3.039705,2.27459 0.508929,0.27285 1.009436,0.56202 1.526789,0.81854 1.094621,0.54273 2.065271,0.92893 3.190158,1.39536 0.948899,0.39345 1.886325,0.81568 2.846144,1.1817 0.413599,0.15771 0.837755,0.28622 1.256633,0.42933 1.780225,0.42184 1.727917,0.69922 3.681936,-1.48883 0.210611,-0.23584 -0.05429,-0.63881 -0.169291,-0.93335 -0.327718,-0.83934 -1.091872,-1.47184 -1.77569,-1.98755 -0.631081,-0.47595 -1.316955,-0.87452 -1.975432,-1.31177 -0.86269,-0.44596 -1.707856,-0.92758 -2.588067,-1.33787 -3.542934,-1.65147 -7.328847,-2.74842 -11.160204,-3.48467 -0.23142,-0.0374 -0.485111,-0.21823 -0.694261,-0.11233 -0.129636,0.0656 0.04683,0.28688 0.06472,0.43108 0.03548,0.28606 0.05623,0.5739 0.09537,0.85948 0.0057,0.0417 -0.0026,0.12727 0.0389,0.12024 0.08906,-0.0151 0.149116,-0.1029 0.216175,-0.16342 0.114599,-0.10342 0.218392,-0.21822 0.327588,-0.32734 0.545209,-0.58887 0.298482,-0.31172 0.822587,-0.92048 0.105437,-0.12247 0.216972,-0.23998 0.315897,-0.36776 0.0297,-0.0384 0.115467,-0.11704 0.06832,-0.12855 -0.259704,-0.0634 -0.542036,0.0185 -0.800412,-0.0501 -0.0519,-0.0138 0.05028,-0.0949 0.07541,-0.14235 0.649784,-0.72241 1.375629,-1.38305 1.949352,-2.16723 0.06926,-0.0947 -0.06347,-0.22851 -0.122357,-0.32997 -0.524494,-0.90351 -1.544873,-1.50124 -2.433934,-1.97853 -1.011126,0.54844 -1.821272,0.96313 -2.750986,1.91757 -0.133112,0.13665 0.02561,0.39961 0.134448,0.55629 0.294224,0.42355 0.664149,0.79311 1.044702,1.14117 1.760058,1.60974 2.784551,2.17155 4.856212,3.57055 1.148813,0.66619 2.274449,1.37405 3.446442,1.99855 1.195453,0.63701 2.414471,1.23144 3.651411,1.7836 2.796132,1.24815 5.738045,2.32142 8.817568,2.52884 0.537088,-0.75518 1.13094,-1.47305 1.611267,-2.26555 0.04055,-0.0669 -0.06647,-0.14293 -0.113715,-0.20528 -0.311031,-0.41042 -0.838796,-0.62364 -1.231847,-0.93468 -0.05495,-0.0344 -0.766133,-0.48061 -0.837303,-0.52096 -0.361146,-0.20473 -0.748814,-0.3656 -1.086956,-0.61134 -0.985687,-0.6233 -2.002809,-1.1964 -3.04536,-1.71928 -1.660493,-0.82998 -3.37408,-1.57099 -4.934278,-2.58599 -0.899414,-0.58076 -1.809173,-1.16387 -2.793547,-1.59494 -0.99794,-0.43701 -2.061628,-0.72859 -3.137146,-0.89016 -0.816713,-0.0619 -1.603344,-0.10416 -2.420636,-0.0413 -0.382823,0.0294 -0.925148,-0.21532 -1.147718,0.0975 -1.24873,1.75531 -1.11462,1.82471 -0.486894,2.52444 0.285515,0.22659 0.621885,0.43567 0.992833,0.48185 0.06214,0.008 0.178311,0.0565 0.187775,-0.005 0.11485,-0.75121 0.107159,-1.5161 0.160737,-2.27415 -0.629026,0.23016 -1.308222,0.59518 -1.527225,1.29507 -0.109998,0.35152 -0.08873,0.7313 -0.133096,1.09694 0.376608,0.80355 0.359513,1.09854 1.100209,1.57064 0.913106,0.58198 1.676791,0.44015 2.809594,0.43613 1.023956,-0.004 1.548763,-0.13823 2.566924,-0.31118 0.458655,-0.10992 0.91989,-0.20959 1.375966,-0.32976 1.776624,-0.46815 3.510161,-1.08296 5.200517,-1.80065 0.07133,-0.0305 0.97028,-0.39764 1.02511,-0.48851 0.810805,-1.34375 0.827463,-1.14259 0.413779,-2.15831 -0.262702,-0.41873 -0.660715,-0.72853 -1.011594,-1.07142 -0.07779,-0.0699 -0.138743,-0.25406 -0.233363,-0.20958 -0.821872,0.38634 -1.558041,0.93369 -2.328791,1.41397 -0.01291,0.008 -0.01633,0.0299 -0.01127,0.0442 0.0574,0.1633 0.174458,0.36586 0.285737,0.49468 0.09268,0.10729 0.202064,0.19894 0.303098,0.29841 0.490223,0.0963 0.991034,0.4286 1.470668,0.28882 0.440754,-0.12845 0.708113,-0.60621 0.952328,-0.99495 0.208169,-0.33137 0.05678,-1.21368 -0.07814,-1.57185 -0.06676,-0.17724 -0.161206,-0.34277 -0.241811,-0.51416 -0.480883,-0.7286 -1.011131,-1.43055 -1.802095,-1.85032 -0.214204,-0.11368 -0.449483,-0.37693 -0.671613,-0.27964 -0.719969,0.31533 -1.263142,0.93575 -1.894713,1.40362 0.07936,0.26722 0.139483,0.54093 0.238085,0.80166 0.08317,0.21991 0.26312,0.31083 0.433956,0.44224 0.09275,0.0713 0.156522,0.20007 0.271315,0.22272 0.59192,0.11685 1.200277,0.12416 1.800415,0.18623 0.217159,-0.47631 0.519856,-0.92226 0.651473,-1.42893 0.04595,-0.17688 -0.08168,-0.35711 -0.142753,-0.52936 -0.05352,-0.15096 -0.236525,-0.41516 -0.339011,-0.52314 -0.703638,-0.74139 -0.599728,-0.42278 -2.056979,-0.69777 -0.354531,0.42764 -0.807397,0.79003 -1.063588,1.28291 -0.132464,0.25484 -0.0688,0.57354 -0.05035,0.86016 0.118319,1.83841 1.794637,3.57441 2.918304,4.84744 0.672663,0.62295 1.318681,1.27597 2.01799,1.86885 4.60398,3.90332 9.924378,6.84766 15.412175,9.30608 2.000231,0.86402 3.988057,1.73232 6.066202,2.39562 0.36067,0.11512 0.725983,0.21563 1.092261,0.31141 0.247417,0.0647 0.515705,0.27648 0.748171,0.16989 0.834898,-0.38283 1.516155,-1.03716 2.274233,-1.55574 -0.07209,-0.21362 -0.124266,-0.43502 -0.216254,-0.64086 -0.30448,-0.6813 -1.376717,-1.22306 -2.023637,-1.49318 -0.160612,-0.0595 -0.332242,-0.0944 -0.482563,-0.17646 -0.120303,-0.0657 -0.132013,-0.2405 -0.189685,-0.36484 -0.441687,-0.95236 -0.248592,-0.549 -0.882946,-1.69617 -0.958297,-1.40797 -1.101151,-1.68183 -2.270257,-3.08811 -2.403483,-2.89109 -5.170906,-5.4499 -7.956627,-7.96366 -0.758259,-0.61793 -1.494882,-1.2634 -2.274779,-1.85379 -2.394648,-1.81277 -5.065964,-3.45389 -8.083301,-3.90701 -0.177326,-0.1139 -1.788099,2.39386 -1.610773,2.50776 z" />
      </g>
      <path
         id="path4097"
         style="opacity:1;fill:#b3b3b3;stroke:#3c3c3c;stroke-width:0.396875;stroke-dasharray:none;stroke-opacity:1"
         d="m 41.004966,179.25083 c -0.113783,0.0356 -0.142245,0.15031 -0.141378,0.26952 l 0.0096,1.29205 c 1.31e-4,0.0239 0.0065,0.0454 0.0175,0.064 a 5.7795434,5.7795434 0 0 0 -1.023897,0.84965 c -0.0166,-0.0145 -0.03681,-0.0251 -0.06069,-0.0295 l -1.270169,-0.23681 c -0.117235,-0.022 -0.235411,-0.0142 -0.290479,0.0914 l -0.914996,1.75732 c -0.05504,0.10573 0.0065,0.20667 0.09135,0.29019 l 0.922349,0.90483 c 0.01251,0.0123 0.02642,0.0212 0.04122,0.0272 a 5.7795434,5.7795434 0 0 0 -0.120466,1.31557 c -0.01546,0.003 -0.03083,0.01 -0.04523,0.0198 l -1.067303,0.72841 c -0.09848,0.0672 -0.176654,0.15565 -0.141084,0.26944 l 0.591303,1.8912 c 0.03558,0.1138 0.150221,0.14194 0.269443,0.14108 l 1.292146,-0.009 c 0.01595,2e-5 0.03092,-0.003 0.04458,-0.008 a 5.7795434,5.7795434 0 0 0 0.859887,1.02974 c -0.0074,0.0123 -0.0121,0.0261 -0.01488,0.0412 l -0.237112,1.27025 c -0.02184,0.1172 -0.01407,0.23501 0.09192,0.29001 l 1.757406,0.91529 c 0.105743,0.055 0.206662,-0.007 0.290192,-0.0914 l 0.905125,-0.92244 c 0.01006,-0.0102 0.01783,-0.0211 0.02372,-0.0329 a 5.7795434,5.7795434 0 0 0 1.312274,0.11407 c 0.0033,0.0133 0.0096,0.0265 0.01783,0.039 l 0.728421,1.06729 c 0.06723,0.0985 0.155741,0.17695 0.269525,0.14137 l 1.891203,-0.5913 c 0.113784,-0.0356 0.141853,-0.15051 0.140995,-0.26973 l -0.0092,-1.29214 c -3.36e-4,-0.0171 -0.0033,-0.033 -0.0092,-0.0475 a 5.7795434,5.7795434 0 0 0 1.023431,-0.86147 c 0.01407,0.01 0.03018,0.0163 0.0485,0.0198 l 1.27017,0.23682 c 0.117202,0.0218 0.235386,0.0142 0.290478,-0.0914 l 0.914997,-1.75732 c 0.05504,-0.10574 -0.0065,-0.20669 -0.09135,-0.29019 l -0.922439,-0.90512 c -0.0157,-0.0154 -0.0337,-0.0256 -0.05275,-0.0313 a 5.7795434,5.7795434 0 0 0 0.112017,-1.29192 c 0.022,-8.2e-4 0.04359,-0.008 0.06363,-0.0218 l 1.067302,-0.72843 c 0.09847,-0.0672 0.176859,-0.15603 0.141273,-0.26982 l -0.591205,-1.8909 c -0.03558,-0.1138 -0.150605,-0.14215 -0.269828,-0.14129 l -1.292137,0.009 c -0.02642,1.9e-4 -0.04965,0.008 -0.06968,0.0211 A 5.7795434,5.7795434 0 0 0 48.017669,181.527 c 0.01881,-0.0181 0.03222,-0.0411 0.03746,-0.0693 l 0.236728,-1.27045 c 0.02176,-0.11719 0.0144,-0.23512 -0.09136,-0.2902 l -1.757316,-0.91499 c -0.105769,-0.0552 -0.206695,0.007 -0.290185,0.0914 l -0.905222,0.92215 c -0.01799,0.0183 -0.02846,0.0397 -0.03345,0.0625 a 5.7795434,5.7795434 0 0 0 -1.297462,-0.11836 c -2.45e-4,-0.0246 -0.0074,-0.0489 -0.02225,-0.0712 l -0.72843,-1.06737 c -0.06723,-0.0985 -0.155945,-0.17658 -0.269729,-0.141 z m 2.121216,3.4954 a 3.0960894,3.0960894 0 0 1 3.878777,2.03101 3.0960894,3.0960894 0 0 1 -2.031019,3.87878 3.0960894,3.0960894 0 0 1 -3.878778,-2.03101 3.0960894,3.0960894 0 0 1 2.03102,-3.87878 z" />
      <g
         id="g10483">
        <path
           id="path4106"
           style="fill:#b3b3b3;fill-opacity:1;stroke:#3c3c3c;stroke-width:0.396875;stroke-dasharray:none;stroke-opacity:1"
           d="m 23.397251,194.77874 c -0.702699,-0.0973 -1.346702,0.39012 -1.443972,1.09282 l -0.260012,1.87835 24.20878,3.35111 0.260012,-1.87836 c 0.09727,-0.70269 -0.390125,-1.3467 -1.092816,-1.44397 z" />
        <path
           id="path4108"
           style="fill:#f9f9f9;fill-opacity:1;stroke:#3c3c3c;stroke-width:0.396875;stroke-dasharray:none;stroke-opacity:1"
           d="m 45.906283,201.07042 c -0.09114,0.007 -0.184371,0.006 -0.278814,-0.007 l -23.934203,-3.3131 -2.023985,14.62151 c -0.09727,0.70269 0.390118,1.3467 1.092817,1.44397 l 21.671992,2.99995 c 0.702691,0.0973 1.346701,-0.39012 1.443972,-1.09281 z" />
        <circle
           style="fill:#666666;fill-opacity:1;stroke:none;stroke-width:0.205392"
           id="circle4110"
           cx="50.700943"
           cy="191.31921"
           r="0.83601266"
           transform="rotate(7.8810933)" />
        <circle
           style="fill:#666666;fill-opacity:1;stroke:none;stroke-width:0.205392"
           id="circle4112"
           cx="53.183651"
           cy="191.31921"
           r="0.83601266"
           transform="rotate(7.8810933)" />
        <circle
           style="fill:#666666;fill-opacity:1;stroke:none;stroke-width:0.205392"
           id="circle4114"
           cx="55.666359"
           cy="191.31921"
           r="0.83601266"
           transform="rotate(7.8810933)" />
      </g>
      <g
         id="g7414"
         style="opacity:1;fill:#666666"
         transform="translate(18.699911,16.072968)">
        <path
           id="rect4118"
           style="fill:#666666;fill-opacity:1;stroke:none;stroke-width:0.115416"
           d="m 119.42255,138.34472 c -0.18184,0.0848 -0.33109,0.23908 -0.40545,0.44339 -0.14872,0.40861 0.0605,0.8573 0.46915,1.00602 l 6.66147,2.42494 3.4e-4,7.08936 c 0,0.43484 0.34983,0.78507 0.78467,0.78507 0.43483,0 0.78484,-0.35029 0.78484,-0.78513 l 1.9e-4,-7.57084 c 0,-0.18796 -0.0652,-0.36003 -0.17464,-0.49489 -0.0893,-0.14918 -0.22912,-0.2696 -0.40597,-0.33397 l -7.1138,-2.58925 c -0.20431,-0.0744 -0.41896,-0.0595 -0.6008,0.0253 z"
           transform="rotate(25.428426)" />
        <path
           id="rect4124"
           style="fill:#666666;fill-opacity:1;stroke:none;stroke-width:0.115416"
           d="m 99.053142,152.60575 c 0.208836,-0.20407 0.523231,-0.28204 0.816922,-0.17514 l 7.114326,2.5892 c 0.17625,0.0641 0.31489,0.1845 0.40422,0.33299 0.1102,0.1351 0.17607,0.30736 0.17607,0.49609 l 3e-5,7.57109 c 0,0.43484 -0.3501,0.7849 -0.78494,0.7849 -0.43484,0 -0.78489,-0.3501 -0.78489,-0.78494 l 2e-5,-7.08947 -6.661701,-2.42503 c -0.408613,-0.14872 -0.618071,-0.59724 -0.469348,-1.00585 0.04183,-0.11492 0.107572,-0.21399 0.189291,-0.29384 z"
           transform="matrix(-0.71237432,0.70179971,0.70179971,0.71237432,0,0)" />
        <path
           id="rect4130"
           style="fill:#666666;stroke-width:0.151687"
           transform="matrix(0.98455525,0.17507418,-0.17901919,0.98384558,0,0)"
           d="m 75.731051,165.84668 c 0.434843,0 0.784915,0.35007 0.784915,0.78491 v 14.21818 c 0,0.43484 -0.350072,0.78491 -0.784915,0.78491 -0.434843,0 -0.784915,-0.35007 -0.784915,-0.78491 v -14.21818 c 0,-0.43484 0.350072,-0.78491 0.784915,-0.78491 z" />
      </g>
    </g>
  </g>
</svg>
