<?xml version="1.0" encoding="UTF-8" standalone="no"?>
<!-- Created with Inkscape (http://www.inkscape.org/) -->

<svg
   width="16.933334mm"
   height="16.933334mm"
   viewBox="0 0 16.933334 16.933334"
   version="1.1"
   id="svg5"
   inkscape:version="1.2.2 (b0a8486, 2022-12-01)"
   sodipodi:docname="project-base-icons.svg"
   xmlns:inkscape="http://www.inkscape.org/namespaces/inkscape"
   xmlns:sodipodi="http://sodipodi.sourceforge.net/DTD/sodipodi-0.dtd"
   xmlns="http://www.w3.org/2000/svg"
   xmlns:svg="http://www.w3.org/2000/svg">
  <sodipodi:namedview
     id="namedview7"
     pagecolor="#ffffff"
     bordercolor="#cccccc"
     borderopacity="1"
     inkscape:showpageshadow="0"
     inkscape:pageopacity="1"
     inkscape:pagecheckerboard="false"
     inkscape:deskcolor="#d1d1d1"
     inkscape:document-units="px"
     showgrid="false"
     inkscape:zoom="2.5164696"
     inkscape:cx="405.13106"
     inkscape:cy="139.48112"
     inkscape:window-width="1440"
     inkscape:window-height="762"
     inkscape:window-x="0"
     inkscape:window-y="25"
     inkscape:window-maximized="0"
     inkscape:current-layer="layer1" />
  <defs
     id="defs2" />
  <g
     inkscape:label="Layer 1"
     inkscape:groupmode="layer"
     id="layer1"
     transform="translate(-88.024302,-46.899604)">
    <g
       id="g3177">
      <rect
         style="fill:none;stroke:none;stroke-width:0.198429"
         id="rect2923"
         width="16.933332"
         height="16.933332"
         x="88.0243"
         y="46.899605" />
      <path
         id="path2895"
         style="fill:#3c3c3c;fill-opacity:1;stroke-width:0.214593"
         d="m 94.865512,47.028039 a 3.6696435,3.6696435 0 0 0 -3.46026,2.455664 3.9946012,3.9946012 0 0 0 -3.04374,3.8778 3.9946012,3.9946012 0 0 0 3.99407,3.995105 3.9946012,3.9946012 0 0 0 0.11731,-0.0047 v 0.0047 h 1.38028 v -0.669727 h -1.23094 v -0.0083 a 3.3164923,3.3166566 0 0 1 -0.21859,0.0083 3.3164923,3.3166566 0 0 1 -3.31659,-3.316593 3.3164923,3.3166566 0 0 1 2.85047,-3.282487 3.0189912,3.019141 0 0 1 2.93212,-2.306836 3.0189912,3.019141 0 0 1 2.67529,1.620056 2.7675726,2.7677097 0 0 1 0.51986,-0.05116 2.7675726,2.7677097 0 0 1 2.767278,2.767273 2.7675726,2.7677097 0 0 1 -0.32505,1.299146 h 2.20452 a 2.2346671,2.2346671 0 0 0 -1.35651,-0.527617 3.2721911,3.2721911 0 0 0 0.13591,-0.929659 3.2721911,3.2721911 0 0 0 -3.271628,-3.272668 3.2721911,3.2721911 0 0 0 -0.27647,0.01292 3.6696435,3.6696435 0 0 0 -3.07733,-1.671217 z" />
      <g
         id="g2921"
         transform="matrix(0.61205822,0,0,0.61205822,39.977729,37.565991)"
         style="fill:#3c3c3c;fill-opacity:1">
        <g
           id="g2903"
           transform="translate(-0.09921524,16.515791)"
           style="fill:#3c3c3c;fill-opacity:1">
          <path
             id="path2897"
             style="fill:#3c3c3c;fill-opacity:1;stroke-width:0.105098"
             d="m 89.172852,15.629537 c -0.217224,0 -0.391708,0.174483 -0.391708,0.391707 v 4.231783 c 0,0.217224 0.174484,0.392225 0.391708,0.392225 h 16.149398 c 0.21723,0 0.39223,-0.175001 0.39223,-0.392225 v -4.231783 c 0,-0.217224 -0.175,-0.391707 -0.39223,-0.391707 z m 0.949296,1.204578 h 14.251322 c 0.0696,0 0.12558,0.05602 0.12558,0.125573 v 2.354895 c 0,0.06955 -0.056,0.125574 -0.12558,0.125574 H 90.122148 c -0.06955,0 -0.125574,-0.05602 -0.125574,-0.125574 v -2.354895 c 0,-0.06955 0.05603,-0.125573 0.125574,-0.125573 z" />
          <circle
             style="fill:#3c3c3c;fill-opacity:1;stroke:none;stroke-width:0.461001"
             id="circle2899"
             cx="102.6622"
             cy="18.137337"
             r="0.52916664" />
          <rect
             style="fill:#3c3c3c;fill-opacity:1;stroke-width:0.15934"
             id="rect2901"
             width="6.3568864"
             height="0.91098821"
             x="91.391846"
             y="17.681843"
             ry="0.28768808" />
        </g>
        <g
           id="g2911"
           transform="translate(-0.09921524,22.060673)"
           style="fill:#3c3c3c;fill-opacity:1">
          <path
             id="path2905"
             style="fill:#3c3c3c;fill-opacity:1;stroke-width:0.105098"
             d="m 89.172852,15.629537 c -0.217224,0 -0.391708,0.174483 -0.391708,0.391707 v 4.231783 c 0,0.217224 0.174484,0.392225 0.391708,0.392225 h 16.149398 c 0.21723,0 0.39223,-0.175001 0.39223,-0.392225 v -4.231783 c 0,-0.217224 -0.175,-0.391707 -0.39223,-0.391707 z m 0.949296,1.204578 h 14.251322 c 0.0696,0 0.12558,0.05602 0.12558,0.125573 v 2.354895 c 0,0.06955 -0.056,0.125574 -0.12558,0.125574 H 90.122148 c -0.06955,0 -0.125574,-0.05602 -0.125574,-0.125574 v -2.354895 c 0,-0.06955 0.05603,-0.125573 0.125574,-0.125573 z" />
          <circle
             style="fill:#3c3c3c;fill-opacity:1;stroke:none;stroke-width:0.461001"
             id="circle2907"
             cx="102.6622"
             cy="18.137337"
             r="0.52916664" />
          <rect
             style="fill:#3c3c3c;fill-opacity:1;stroke-width:0.15934"
             id="rect2909"
             width="6.3568864"
             height="0.91098821"
             x="91.391846"
             y="17.681843"
             ry="0.28768808" />
        </g>
        <g
           id="g2919"
           transform="translate(-0.09921524,10.970909)"
           style="fill:#3c3c3c;fill-opacity:1">
          <path
             id="path2913"
             style="fill:#3c3c3c;fill-opacity:1;stroke-width:0.105098"
             d="m 89.172852,15.629537 c -0.217224,0 -0.391708,0.174483 -0.391708,0.391707 v 4.231783 c 0,0.217224 0.174484,0.392225 0.391708,0.392225 h 16.149398 c 0.21723,0 0.39223,-0.175001 0.39223,-0.392225 v -4.231783 c 0,-0.217224 -0.175,-0.391707 -0.39223,-0.391707 z m 0.949296,1.204578 h 14.251322 c 0.0696,0 0.12558,0.05602 0.12558,0.125573 v 2.354895 c 0,0.06955 -0.056,0.125574 -0.12558,0.125574 H 90.122148 c -0.06955,0 -0.125574,-0.05602 -0.125574,-0.125574 v -2.354895 c 0,-0.06955 0.05603,-0.125573 0.125574,-0.125573 z" />
          <circle
             style="fill:#3c3c3c;fill-opacity:1;stroke:none;stroke-width:0.461001"
             id="circle2915"
             cx="102.6622"
             cy="18.137337"
             r="0.52916664" />
          <rect
             style="fill:#3c3c3c;fill-opacity:1;stroke-width:0.15934"
             id="rect2917"
             width="6.3568864"
             height="0.91098821"
             x="91.391846"
             y="17.681843"
             ry="0.28768808" />
        </g>
      </g>
    </g>
  </g>
</svg>
